<svg width="130" height="125" viewBox="0 0 130 125" fill="none" xmlns="http://www.w3.org/2000/svg">
<g opacity="0.8">
<line x1="8.20728" y1="114.932" x2="39.7928" y2="114.932" stroke="#1F1111" stroke-linecap="round" stroke-dasharray="2.34 2.34"/>
<path d="M11.5539 68.2443L19.1481 67.2707L20.641 74.2158L23.432 81.6802L16.7465 86.2887L12.7871 92.1953L16.7465 99.2702L21.6795 105.501L26.937 101.672L31.8051 94.0127L37.3871 98.7509L43.6183 101.996L41.4114 111.992L42.1903 120.82L49.6547 123.156L57.3787 124L58.7417 115.627L57.3787 104.528L64.194 103.359L71.1391 100.439L76.2668 110.629L82.6278 117.25L89.7676 112.122L95.7391 105.826L90.871 97.323L82.6278 89.8586L86.7169 82.3293L89.3782 74.2807L99.7634 77.6559L108.85 77.2016L110.019 67.2707L109.694 57.5346L100.867 55.133L90.222 56.8855L88.2747 47.9931L84.7048 39.9446L93.9217 33.5836L99.2441 26.1842L93.6621 18.9145L87.3011 12.5536L80.1613 18.1356L74.2547 27.4823L67.6341 23.3282L60.8188 20.8617L63.1555 10.0222L62.5064 1.38945L54.6526 1L46.9286 2.03852L45.6304 10.6063L46.9286 20.8617L40.5676 23.1335L34.5312 27.1578L30.3122 18.3953L25.1845 13.5921L19.7322 19.1092L15.3834 25.4053L18.6937 31.896L25.1845 37.8026L22.004 44.4232L19.9919 51.6929L13.2415 49.3562L6.49108 49.9404L5.7771 57.8591V66.4269L11.5539 68.2443Z" stroke="#1F1111" stroke-linecap="round" stroke-linejoin="round"/>
<path d="M79.3367 62.4674C79.3367 79.4811 67.7149 93.1231 53.5491 93.1231C39.3832 93.1231 27.7615 79.4811 27.7615 62.4674C27.7615 45.4538 39.3832 31.8118 53.5491 31.8118C67.7149 31.8118 79.3367 45.4538 79.3367 62.4674Z" stroke="#1F1111" stroke-linecap="round" stroke-linejoin="round"/>
<path d="M70.5417 84.8474C66.548 83.7464 62.8956 80.9788 60.1416 76.9085C57.3873 72.8376 55.6897 67.6945 55.3152 62.234C54.9408 56.7739 55.9107 51.3067 58.0727 46.6407C60.2352 41.9738 63.0586 38.6014 66.855 36.5698" stroke="#1F1111" stroke-linecap="round" stroke-linejoin="round"/>
<path d="M13.3711 49.3562H20.446" stroke="#1F1111" stroke-linecap="round" stroke-linejoin="round"/>
<path d="M25.3794 13.3972L46.4095 16.9671" stroke="#1F1111" stroke-linecap="round" stroke-linejoin="round"/>
<path d="M62.5713 1.38965L86.2626 7.62078L86.8468 12.8783" stroke="#1F1111" stroke-linecap="round" stroke-linejoin="round"/>
<path d="M87.2362 12.5535L108.656 17.5514L114.497 23.0036L119.236 29.4295L114.497 35.8553L106.514 41.2427L85.0293 40.1392" stroke="#1F1111" stroke-linecap="round" stroke-linejoin="round"/>
<path d="M99.1792 26.1191L118.781 29.2996" stroke="#1F1111" stroke-linecap="round" stroke-linejoin="round"/>
<path d="M106.708 41.4375L109.434 48.0581L111.057 54.3541" stroke="#1F1111" stroke-linecap="round" stroke-linejoin="round"/>
<path d="M100.997 55.1329L121.248 53.9646L128.582 55.782L128.907 64.934L128.063 73.1124L108.526 77.2664" stroke="#1F1111" stroke-linecap="round" stroke-linejoin="round"/>
<path d="M109.629 57.4694L128.453 55.8467" stroke="#1F1111" stroke-linecap="round" stroke-linejoin="round"/>
<path d="M108.526 77.1365L104.567 83.9518" stroke="#1F1111" stroke-linecap="round" stroke-linejoin="round"/>
<path d="M82.8223 89.729L104.501 84.082L112.031 90.443L116.25 97.3881L110.603 103.36L104.501 107.708L82.8872 117.25" stroke="#1F1111" stroke-linecap="round" stroke-linejoin="round"/>
<path d="M95.6091 106.021L115.86 97.4529" stroke="#1F1111" stroke-linecap="round" stroke-linejoin="round"/>
<path d="M57.314 124L79.772 114.718" stroke="#1F1111" stroke-linecap="round" stroke-linejoin="round"/>
<path d="M22.0039 105.372L40.4377 100.568" stroke="#1F1111" stroke-linecap="round" stroke-linejoin="round"/>
<line x1="28.0899" y1="16.093" x2="46.0541" y2="18.8" stroke="#1F1111" stroke-linecap="round"/>
<line x1="63.1668" y1="5.35721" x2="86.4654" y2="10.4655" stroke="#1F1111" stroke-linecap="round"/>
<line x1="63.2781" y1="10.3922" x2="85.1398" y2="14.1186" stroke="#1F1111" stroke-linecap="round"/>
<line x1="62.2226" y1="15.5619" x2="80.3137" y2="17.9002" stroke="#1F1111" stroke-linecap="round"/>
<line x1="61.4295" y1="20.0877" x2="77.8294" y2="21.6788" stroke="#1F1111" stroke-linecap="round"/>
<line x1="86.4583" y1="43.5548" x2="107.398" y2="44.4221" stroke="#1F1111" stroke-linecap="round"/>
<line x1="88.6508" y1="48.4726" x2="109.2" y2="48.7202" stroke="#1F1111" stroke-linecap="round"/>
<line x1="90.0476" y1="53.7654" x2="110.209" y2="52.7759" stroke="#1F1111" stroke-linecap="round"/>
<line x1="87.4895" y1="80.0253" x2="106.222" y2="80.5182" stroke="#1F1111" stroke-linecap="round"/>
<line x1="84.8337" y1="85.6809" x2="104.089" y2="83.9529" stroke="#1F1111" stroke-linecap="round"/>
<line x1="58.2776" y1="108.085" x2="72.4898" y2="104.927" stroke="#1F1111" stroke-linecap="round"/>
<line x1="27.258" y1="101.598" x2="37.963" y2="99.3385" stroke="#1F1111" stroke-linecap="round"/>
<line x1="46.5649" y1="33.4204" x2="64.5502" y2="38.1015" stroke="#1F1111" stroke-linecap="round"/>
<line x1="39.2881" y1="37.1733" x2="60.5141" y2="42.2626" stroke="#1F1111" stroke-linecap="round"/>
<line x1="32.7758" y1="45.3187" x2="56.8462" y2="49.6838" stroke="#1F1111" stroke-linecap="round"/>
<line x1="28.4577" y1="57.8655" x2="54.8536" y2="60.4925" stroke="#1F1111" stroke-linecap="round"/>
<line x1="29.3369" y1="71.2025" x2="57.4161" y2="72.2053" stroke="#1F1111" stroke-linecap="round"/>
<line x1="32.679" y1="79.8667" x2="61.2774" y2="78.9887" stroke="#1F1111" stroke-linecap="round"/>
<line x1="36.0272" y1="84.7759" x2="65.0179" y2="82.3914" stroke="#1F1111" stroke-linecap="round"/>
<line x1="40.2841" y1="88.7785" x2="69.9291" y2="84.8845" stroke="#1F1111" stroke-linecap="round"/>
<line x1="46.8637" y1="91.9946" x2="68.0824" y2="87.6516" stroke="#1F1111" stroke-linecap="round"/>
<line x1="29.2159" y1="98.3604" x2="34.9843" y2="97.2511" stroke="#1F1111" stroke-linecap="round"/>
<line x1="59.0171" y1="114.683" x2="75.4522" y2="109.899" stroke="#1F1111" stroke-linecap="round"/>
<line x1="58.1992" y1="121.024" x2="78.5479" y2="113.703" stroke="#1F1111" stroke-linecap="round"/>
<line x1="68.9461" y1="24.227" x2="75.4777" y2="24.6775" stroke="#1F1111" stroke-linecap="round"/>
<line x1="30.9185" y1="19.4336" x2="46.2791" y2="20.7746" stroke="#1F1111" stroke-linecap="round"/>
<line x1="32.6875" y1="23.1456" x2="40.9045" y2="23.0299" stroke="#1F1111" stroke-linecap="round"/>
<line x1="5.17358" y1="111.427" x2="39.2237" y2="111.427" stroke="#1F1111" stroke-linecap="round" stroke-dasharray="2.34 2.34"/>
<line x1="2.1875" y1="107.922" x2="40.7812" y2="107.922" stroke="#1F1111" stroke-linecap="round" stroke-dasharray="2.34 2.34"/>
<line x1="40.0024" y1="104.249" x2="31.7856" y2="104.249" stroke="#1F1111" stroke-linecap="round" stroke-dasharray="2.34 2.34"/>
<line x1="0.5" y1="104.547" x2="17.4145" y2="104.547" stroke="#1F1111" stroke-linecap="round" stroke-dasharray="2.34 2.34"/>
<line x1="13.4817" y1="118.437" x2="39.8727" y2="118.437" stroke="#1F1111" stroke-linecap="round" stroke-dasharray="2.34 2.34"/>
<line x1="16.5" y1="121.5" x2="44.5" y2="121.5" stroke="#1F1111" stroke-linecap="round" stroke-dasharray="2.34 2.34"/>
</g>
</svg>
