<svg width="164" height="136" viewBox="0 0 164 136" fill="none" xmlns="http://www.w3.org/2000/svg">
<g opacity="0.8">
<line x1="20.7212" y1="79.3962" x2="34.621" y2="79.3962" stroke="#1F1111" stroke-linecap="round" stroke-dasharray="2 2"/>
<line x1="11.1428" y1="82.5891" x2="26.1069" y2="82.5891" stroke="#1F1111" stroke-linecap="round" stroke-dasharray="2 2"/>
<line x1="6.8855" y1="85.7817" x2="22.9138" y2="85.7817" stroke="#1F1111" stroke-linecap="round" stroke-dasharray="2 2"/>
<line x1="2.62842" y1="88.9746" x2="14.3997" y2="88.9746" stroke="#1F1111" stroke-linecap="round" stroke-dasharray="2 2"/>
<line x1="49.5" y1="82.5" x2="53.5" y2="82.5" stroke="#1F1111" stroke-linecap="round" stroke-dasharray="2 2"/>
<line x1="1.56421" y1="92.1672" x2="15.464" y2="92.1672" stroke="#1F1111" stroke-linecap="round" stroke-dasharray="2 2"/>
<line x1="47.5" y1="85.5" x2="59.5" y2="85.5" stroke="#1F1111" stroke-linecap="round" stroke-dasharray="2 2"/>
<line x1="0.5" y1="95.3601" x2="14.3998" y2="95.3601" stroke="#1F1111" stroke-linecap="round" stroke-dasharray="2 2"/>
<line x1="38.5" y1="88.5" x2="73.5" y2="88.5" stroke="#1F1111" stroke-linecap="round" stroke-dasharray="2 2"/>
<line x1="0.5" y1="98.5535" x2="14.3998" y2="98.5535" stroke="#1F1111" stroke-linecap="round" stroke-dasharray="2 2"/>
<line x1="126.5" y1="101.5" x2="131.5" y2="101.5" stroke="#1F1111" stroke-linecap="round" stroke-dasharray="2 2"/>
<line x1="130.5" y1="98.5" x2="138.5" y2="98.5" stroke="#1F1111" stroke-linecap="round" stroke-dasharray="2 2"/>
<line x1="134.598" y1="95.3601" x2="146.37" y2="95.3601" stroke="#1F1111" stroke-linecap="round" stroke-dasharray="2 2"/>
<line x1="143.785" y1="106.5" x2="149.171" y2="106.5" stroke="#1F1111" stroke-linecap="round" stroke-dasharray="2 2"/>
<line x1="133.143" y1="109.693" x2="147.042" y2="109.693" stroke="#1F1111" stroke-linecap="round" stroke-dasharray="2 2"/>
<line x1="122.5" y1="112.886" x2="140.657" y2="112.886" stroke="#1F1111" stroke-linecap="round" stroke-dasharray="2 2"/>
<line x1="1.56421" y1="101.746" x2="17.5926" y2="101.746" stroke="#1F1111" stroke-linecap="round" stroke-dasharray="2 2"/>
<line x1="2.62842" y1="104.939" x2="16.5282" y2="104.939" stroke="#1F1111" stroke-linecap="round" stroke-dasharray="2 2"/>
<line x1="4.75708" y1="108.132" x2="16.5283" y2="108.132" stroke="#1F1111" stroke-linecap="round" stroke-dasharray="2 2"/>
<line x1="6.8855" y1="111.324" x2="16.5282" y2="111.324" stroke="#1F1111" stroke-linecap="round" stroke-dasharray="2 2"/>
<line x1="10.0784" y1="114.517" x2="27.171" y2="114.517" stroke="#1F1111" stroke-linecap="round" stroke-dasharray="2 2"/>
<line x1="14.3354" y1="117.71" x2="30.3638" y2="117.71" stroke="#1F1111" stroke-linecap="round" stroke-dasharray="2 2"/>
<line x1="19.657" y1="120.903" x2="39.9424" y2="120.903" stroke="#1F1111" stroke-linecap="round" stroke-dasharray="2 2"/>
<line x1="107.5" y1="122.5" x2="117.143" y2="122.5" stroke="#1F1111" stroke-linecap="round" stroke-dasharray="2 2"/>
<line x1="92.5" y1="116.5" x2="102.143" y2="116.5" stroke="#1F1111" stroke-linecap="round" stroke-dasharray="2 2"/>
<line x1="88.8345" y1="113.453" x2="98.4772" y2="113.453" stroke="#1F1111" stroke-linecap="round" stroke-dasharray="2 2"/>
<line x1="86.5" y1="110.5" x2="89.5" y2="110.5" stroke="#1F1111" stroke-linecap="round" stroke-dasharray="2 2"/>
<line x1="24.9783" y1="124.095" x2="42.0709" y2="124.095" stroke="#1F1111" stroke-linecap="round" stroke-dasharray="2 2"/>
<line x1="30.2996" y1="127.288" x2="47.3922" y2="127.288" stroke="#1F1111" stroke-linecap="round" stroke-dasharray="2 2"/>
<line x1="36.6853" y1="130.481" x2="68.6777" y2="130.481" stroke="#1F1111" stroke-linecap="round" stroke-dasharray="2 2"/>
<path d="M68.7344 129.054C69.3375 130.315 71.8705 132.266 78.0549 131.959C85.7854 131.576 88.6912 132.398 93.3515 133.933C98.0117 135.468 102.398 136.181 105.578 133.714C107.168 132.782 107.168 128.725 106.565 126.861" stroke="#1F1111" stroke-linecap="round" stroke-linejoin="round"/>
<path d="M47.2974 83.4928C48.1198 82.7435 50.0277 81.2011 51.0804 81.0256" stroke="#1F1111" stroke-linecap="round" stroke-linejoin="round"/>
<path d="M37.8123 85.3025C38.4519 84.5349 40.093 82.8243 41.5405 82.1225C42.9879 81.4208 45.689 80.5508 46.8586 80.2036" stroke="#1F1111" stroke-linecap="round" stroke-linejoin="round"/>
<path d="M33.6455 81.5739C34.212 81.2267 35.3451 80.28 35.5644 79.4905" stroke="#1F1111" stroke-linecap="round" stroke-linejoin="round"/>
<path d="M46.804 77.4073C47.206 77.2063 48.0869 76.8042 48.3939 76.8042" stroke="#1F1111" stroke-linecap="round" stroke-linejoin="round"/>
<path d="M46.9137 77.9011C46.9137 78.4311 46.9137 80.1929 46.9137 80.5876C46.9137 81.0811 45.9816 81.9035 45.1592 82.1228C44.3368 82.3421 40.2248 83.7127 37.5383 86.5637" stroke="#1F1111" stroke-linecap="round" stroke-linejoin="round"/>
<path d="M37.5382 83.8218C37.5382 84.5893 37.5382 86.2122 37.5382 86.5631C37.5382 87.0017 36.1127 88.811 30.8494 88.811" stroke="#1F1111" stroke-linecap="round" stroke-linejoin="round"/>
<path d="M28.1082 90.7853C29.223 89.835 31.7157 87.8686 32.7684 87.6054C34.0842 87.2764 36.5514 86.6185 37.7576 85.9058" stroke="#1F1111" stroke-linecap="round" stroke-linejoin="round"/>
<path d="M37.2639 87.3313V89.5792" stroke="#1F1111" stroke-linecap="round" stroke-linejoin="round"/>
<path d="M37.9768 91.7166C38.1778 91.5156 38.2509 91.3438 38.2509 90.949C38.2509 90.4556 37.8672 88.098 40.2795 87.2208C41.1933 87.1843 43.602 87.3195 44.8301 87.0563C46.0582 86.7932 46.877 85.9963 47.1328 85.6308V83.3281" stroke="#1F1111" stroke-linecap="round" stroke-linejoin="round"/>
<path d="M40.7729 98.8997V101.477" stroke="#1F1111" stroke-linecap="round" stroke-linejoin="round"/>
<path d="M35.1807 105.369C36.0579 104.894 38.1074 104.007 39.0733 103.614C40.8278 102.902 42.5822 102.134 42.034 100.215" stroke="#1F1111" stroke-linecap="round" stroke-linejoin="round"/>
<path d="M38.251 105.095C38.9454 104.821 40.1151 104.503 40.5537 104.327C41.102 104.108 42.6371 103.121 42.0888 101.915" stroke="#1F1111" stroke-linecap="round" stroke-linejoin="round"/>
<path d="M44.4999 71C42.7455 71.0548 40.1149 71.5955 40.3342 72.9113C40.6083 74.5561 39.9504 75.9268 37.8122 76.804C35.6739 77.6812 34.8515 78.1747 35.3998 79.1067C35.948 80.0388 40.2793 80.6419 42.6917 80.2581C45.1041 79.8743 47.0778 78.8874 46.8037 77.8457C46.5296 76.804 46.694 75.9268 47.4616 75.4882" stroke="#1F1111" stroke-linecap="round" stroke-linejoin="round"/>
<path d="M14.8399 89.7433C14.182 91.1907 15.772 92.0643 16.6492 92.3201C19.9936 93.8004 26.2439 92.1556 26.9018 91.0043C27.5597 89.8529 28.6014 88.6468 30.8493 87.2213C33.0972 85.7958 36.4964 85.6861 37.264 84.5896C38.0316 83.4931 36.9899 82.4513 34.6323 81.8483C32.2748 81.2452 27.1211 81.7386 26.4632 83.1641C25.8053 84.5896 23.667 86.1247 21.3643 87.0568C19.0616 87.9888 15.6623 87.934 14.8399 89.7433Z" stroke="#1F1111" stroke-linecap="round" stroke-linejoin="round"/>
<path d="M46.6394 78.7229C46.7125 78.9788 47.6044 79.6769 50.1483 79.7646" stroke="#1F1111" stroke-linecap="round" stroke-linejoin="round"/>
<path d="M49.8194 79.7649C49.2345 80.0939 47.9772 80.8505 47.6263 81.2452C47.1877 81.7386 46.8587 82.2321 46.9684 82.6707C47.078 83.1093 47.6263 83.8221 45.3236 84.5348C43.0209 85.2475 40.7182 85.9055 39.512 86.9472C38.3058 87.9889 38.3058 88.592 38.0317 89.1402C37.7575 89.6885 33.5907 92.046 28.437 90.9495" stroke="#1F1111" stroke-linecap="round" stroke-linejoin="round"/>
<path d="M27.3405 90.4562C28.4735 90.9679 30.9261 92.0571 31.6718 92.3203C33.28 91.8816 37.0557 91.2676 39.2926 92.3203C42.0888 93.6361 42.7467 95.2809 39.2926 96.5419C35.8386 97.8029 33.3714 98.6253 32.3297 100.544C31.288 102.463 30.3559 105.259 24.8184 105.588C19.281 105.917 16.0462 104.382 16.8686 102.299C17.691 100.215 22.0771 99.6122 24.1605 98.5157C25.8273 97.6384 26.975 96.6516 27.3405 96.2678C26.1708 95.7012 22.9496 94.533 20.2302 94.2259C16.831 93.8422 15.4979 93.362 14.6755 92.5944V90.1272" stroke="#1F1111" stroke-linecap="round" stroke-linejoin="round"/>
<path d="M14.6755 92.5938C14.8035 93.142 15.476 94.6991 16.9234 95.0061C18.7327 95.3899 23.5574 95.7737 26.1891 97.1992" stroke="#1F1111" stroke-linecap="round" stroke-linejoin="round"/>
<path d="M15.231 94.7808C15.231 95.2559 15.3074 96.7988 15.7864 97.0026C16.5035 97.3077 18.8594 97.535 20.5968 97.8023C22.0223 98.0216 22.8995 98.3506 23.6671 98.5699" stroke="#1F1111" stroke-linecap="round" stroke-linejoin="round"/>
<path d="M15.3882 94.239C15.2055 94.3121 14.9606 95.4781 15.0044 96.2676C15.0593 97.2545 15.3334 99.2282 16.2106 99.6668C16.9124 100.018 18.1844 100.343 18.8423 100.489" stroke="#1F1111" stroke-linecap="round" stroke-linejoin="round"/>
<path d="M41.6502 94.5129C41.6502 95.1343 41.6502 96.9692 41.6502 97.3639C41.6502 97.8574 41.3213 98.5153 39.4572 99.1732C37.9659 99.6995 34.6324 100.434 31.5073 102.243" stroke="#1F1111" stroke-linecap="round" stroke-linejoin="round"/>
<path d="M32.0007 102.682C33.3166 102.791 36.4855 102.879 38.6347 102.353C41.3212 101.695 41.9243 100.598 41.9792 99.9953C42.034 99.3922 41.4309 98.6247 41.1568 98.5698" stroke="#1F1111" stroke-linecap="round" stroke-linejoin="round"/>
<path d="M42.9901 77.7364C42.9901 77.769 42.975 77.8236 42.898 77.8984C42.8202 77.9738 42.6946 78.0533 42.5189 78.1254C42.1689 78.269 41.668 78.3636 41.1019 78.3636C40.5357 78.3636 40.0349 78.269 39.6848 78.1254C39.5091 78.0533 39.3835 77.9738 39.3057 77.8984C39.2287 77.8236 39.2136 77.769 39.2136 77.7364C39.2136 77.7038 39.2287 77.6491 39.3057 77.5744C39.3835 77.4989 39.5091 77.4194 39.6848 77.3474C40.0349 77.2037 40.5357 77.1091 41.1019 77.1091C41.668 77.1091 42.1689 77.2037 42.5189 77.3474C42.6946 77.4194 42.8202 77.4989 42.898 77.5744C42.975 77.6491 42.9901 77.7038 42.9901 77.7364Z" stroke="#1F1111" stroke-width="0.5" stroke-linecap="round" stroke-linejoin="round"/>
<path d="M39.2925 77.7363V78.3353V78.7159C39.8519 78.9697 41.3587 79.3249 42.911 78.7159V77.7363" stroke="#1F1111" stroke-width="0.5" stroke-linecap="round" stroke-linejoin="round"/>
<mask id="mask0_1732_6311" style="mask-type:alpha" maskUnits="userSpaceOnUse" x="42" y="71" width="5" height="5">
<path d="M46.9683 75.1045L45.0036 71.0474L42.2532 72.0083L42.4988 74.6241L46.9683 75.1045Z" fill="#C4C4C4"/>
</mask>
<g mask="url(#mask0_1732_6311)">
<path d="M47.8148 72.4729C47.8148 72.5055 47.7997 72.5602 47.7227 72.6349C47.6449 72.7104 47.5193 72.7899 47.3436 72.8619C46.9936 73.0055 46.4927 73.1002 45.9266 73.1002C45.3604 73.1002 44.8596 73.0055 44.5095 72.8619C44.3339 72.7899 44.2082 72.7104 44.1304 72.6349C44.0534 72.5602 44.0383 72.5055 44.0383 72.4729C44.0383 72.4403 44.0534 72.3856 44.1304 72.3109C44.2082 72.2355 44.3339 72.156 44.5095 72.0839C44.8596 71.9403 45.3604 71.8457 45.9266 71.8457C46.4927 71.8457 46.9936 71.9403 47.3436 72.0839C47.5193 72.156 47.6449 72.2355 47.7227 72.3109C47.7997 72.3856 47.8148 72.4403 47.8148 72.4729Z" stroke="#1F1111" stroke-width="0.5" stroke-linecap="round" stroke-linejoin="round"/>
<path d="M44.1172 72.4729V73.0719V73.4525C44.6766 73.7062 46.1834 74.0615 47.7357 73.4525V72.4729" stroke="#1F1111" stroke-width="0.5" stroke-linecap="round" stroke-linejoin="round"/>
</g>
<path d="M33.4503 83.2195C33.4503 83.2521 33.4352 83.3068 33.3582 83.3815C33.2804 83.457 33.1548 83.5365 32.9791 83.6085C32.6291 83.7521 32.1282 83.8467 31.5621 83.8467C30.9959 83.8467 30.4951 83.7521 30.145 83.6085C29.9694 83.5365 29.8437 83.457 29.7659 83.3815C29.6889 83.3068 29.6738 83.2521 29.6738 83.2195C29.6738 83.1869 29.6889 83.1322 29.7659 83.0575C29.8437 82.982 29.9694 82.9026 30.145 82.8305C30.4951 82.6869 30.9959 82.5923 31.5621 82.5923C32.1282 82.5923 32.6291 82.6869 32.9791 82.8305C33.1548 82.9026 33.2804 82.982 33.3582 83.0575C33.4352 83.1322 33.4503 83.1869 33.4503 83.2195Z" stroke="#1F1111" stroke-width="0.5" stroke-linecap="round" stroke-linejoin="round"/>
<path d="M29.7529 83.2195V83.8185V84.1991C30.3123 84.4528 31.8192 84.808 33.3715 84.1991V83.2195" stroke="#1F1111" stroke-width="0.5" stroke-linecap="round" stroke-linejoin="round"/>
<path d="M22.9237 89.3592C22.9237 89.3918 22.9086 89.4464 22.8316 89.5212C22.7538 89.5966 22.6282 89.6761 22.4525 89.7482C22.1025 89.8918 21.6016 89.9864 21.0355 89.9864C20.4693 89.9864 19.9684 89.8918 19.6184 89.7482C19.4427 89.6761 19.3171 89.5966 19.2393 89.5212C19.1623 89.4464 19.1472 89.3918 19.1472 89.3592C19.1472 89.3266 19.1623 89.2719 19.2393 89.1972C19.3171 89.1217 19.4427 89.0422 19.6184 88.9702C19.9684 88.8265 20.4693 88.7319 21.0355 88.7319C21.6016 88.7319 22.1025 88.8265 22.4525 88.9702C22.6282 89.0422 22.7538 89.1217 22.8316 89.1972C22.9086 89.2719 22.9237 89.3266 22.9237 89.3592Z" stroke="#1F1111" stroke-width="0.5" stroke-linecap="round" stroke-linejoin="round"/>
<path d="M19.2261 89.3591V89.9581V90.3387C19.7855 90.5925 21.2923 90.9477 22.8446 90.3387V89.3591" stroke="#1F1111" stroke-width="0.5" stroke-linecap="round" stroke-linejoin="round"/>
<path d="M37.0579 93.8331C37.0579 93.8778 37.0368 93.944 36.949 94.0293C36.8604 94.1152 36.7191 94.2041 36.5241 94.2841C36.1353 94.4436 35.581 94.5481 34.9558 94.5481C34.3307 94.5481 33.7763 94.4436 33.3876 94.2841C33.1926 94.2041 33.0513 94.1152 32.9627 94.0293C32.8748 93.944 32.8538 93.8778 32.8538 93.8331C32.8538 93.7884 32.8748 93.7222 32.9627 93.637C33.0513 93.551 33.1926 93.4621 33.3876 93.3821C33.7763 93.2226 34.3307 93.1182 34.9558 93.1182C35.581 93.1182 36.1353 93.2226 36.5241 93.3821C36.7191 93.4621 36.8604 93.551 36.949 93.637C37.0368 93.7222 37.0579 93.7884 37.0579 93.8331Z" stroke="#1F1111" stroke-width="0.5" stroke-linecap="round" stroke-linejoin="round"/>
<path d="M32.9656 93.833V94.4919V94.9106C33.5809 95.1897 35.2384 95.5804 36.946 94.9106V93.833" stroke="#1F1111" stroke-width="0.5" stroke-linecap="round" stroke-linejoin="round"/>
<path d="M56.5872 114.69C56.5872 114.938 56.3797 115.229 55.8904 115.474C55.416 115.711 54.7431 115.865 53.9862 115.865C53.2294 115.865 52.5565 115.711 52.0821 115.474C51.5927 115.229 51.3853 114.938 51.3853 114.69C51.3853 114.442 51.5927 114.15 52.0821 113.905C52.5565 113.668 53.2294 113.514 53.9862 113.514C54.7431 113.514 55.416 113.668 55.8904 113.905C56.3797 114.15 56.5872 114.442 56.5872 114.69Z" stroke="#1F1111" stroke-width="0.5" stroke-linecap="round" stroke-linejoin="round"/>
<path d="M51.4861 114.931V115.77V116.303C52.2692 116.658 54.3788 117.155 56.5521 116.303V114.931" stroke="#1F1111" stroke-width="0.5" stroke-linecap="round" stroke-linejoin="round"/>
<path d="M40.7286 107.912C40.7286 108.135 40.5411 108.404 40.084 108.633C39.6418 108.854 39.0135 108.998 38.3058 108.998C37.5982 108.998 36.9699 108.854 36.5277 108.633C36.0706 108.404 35.8831 108.135 35.8831 107.912C35.8831 107.688 36.0706 107.419 36.5277 107.19C36.9699 106.969 37.5982 106.825 38.3058 106.825C39.0135 106.825 39.6418 106.969 40.084 107.19C40.5411 107.419 40.7286 107.688 40.7286 107.912Z" stroke="#1F1111" stroke-width="0.5" stroke-linecap="round" stroke-linejoin="round"/>
<path d="M35.9619 108.137V108.923V109.423C36.6961 109.756 38.6739 110.222 40.7113 109.423V108.137" stroke="#1F1111" stroke-width="0.5" stroke-linecap="round" stroke-linejoin="round"/>
<path d="M78.7096 117.67C78.7096 117.893 78.5221 118.163 78.065 118.392C77.6228 118.613 76.9945 118.757 76.2868 118.757C75.5791 118.757 74.9508 118.613 74.5087 118.392C74.0516 118.163 73.864 117.893 73.864 117.67C73.864 117.447 74.0516 117.177 74.5087 116.949C74.9508 116.728 75.5791 116.584 76.2868 116.584C76.9945 116.584 77.6228 116.728 78.065 116.949C78.5221 117.177 78.7096 117.447 78.7096 117.67Z" stroke="#1F1111" stroke-width="0.5" stroke-linecap="round" stroke-linejoin="round"/>
<path d="M73.9429 117.896V118.682V119.181C74.6771 119.514 76.6548 119.981 78.6922 119.181V117.896" stroke="#1F1111" stroke-width="0.5" stroke-linecap="round" stroke-linejoin="round"/>
<path d="M102.004 120.545C102.004 120.806 101.786 121.109 101.281 121.361C100.79 121.607 100.095 121.766 99.3139 121.766C98.5324 121.766 97.8372 121.607 97.3467 121.361C96.8412 121.109 96.6238 120.806 96.6238 120.545C96.6238 120.285 96.8412 119.982 97.3467 119.73C97.8372 119.484 98.5324 119.325 99.3139 119.325C100.095 119.325 100.79 119.484 101.281 119.73C101.786 119.982 102.004 120.285 102.004 120.545Z" stroke="#1F1111" stroke-width="0.5" stroke-linecap="round" stroke-linejoin="round"/>
<path d="M96.7356 120.794V121.659V122.209C97.5432 122.575 99.7187 123.088 101.96 122.209V120.794" stroke="#1F1111" stroke-width="0.5" stroke-linecap="round" stroke-linejoin="round"/>
<path d="M26.7369 101.619C26.7369 101.694 26.7009 101.789 26.586 101.9C26.4703 102.012 26.2898 102.125 26.0465 102.225C25.561 102.424 24.873 102.553 24.1002 102.553C23.3275 102.553 22.6395 102.424 22.154 102.225C21.9106 102.125 21.7302 102.012 21.6145 101.9C21.4996 101.789 21.4636 101.694 21.4636 101.619C21.4636 101.544 21.4996 101.449 21.6145 101.337C21.7302 101.225 21.9106 101.112 22.154 101.012C22.6395 100.813 23.3275 100.684 24.1002 100.684C24.873 100.684 25.561 100.813 26.0465 101.012C26.2898 101.112 26.4703 101.225 26.586 101.337C26.7009 101.449 26.7369 101.544 26.7369 101.619Z" stroke="#1F1111" stroke-width="0.5" stroke-linecap="round" stroke-linejoin="round"/>
<path d="M21.6577 101.619V102.428V102.941C22.4129 103.284 24.4471 103.763 26.5428 102.941V101.619" stroke="#1F1111" stroke-width="0.5" stroke-linecap="round" stroke-linejoin="round"/>
<path d="M31.6169 102.517C31.9641 103.449 33.1191 105.346 34.9613 105.478M34.9613 105.478C37.264 105.642 41.5405 103.614 44.5011 106.355C47.4617 109.097 47.1328 110.303 53.1089 111.399C59.085 112.496 64.8966 114.579 59.5784 118.307C54.2602 122.036 48.1745 118.91 45.488 116.114C42.8015 113.318 37.2092 112.441 34.9613 112.057C32.7134 111.673 30.0817 110.522 31.1783 108C32.0555 105.982 34.0658 105.478 34.9613 105.478Z" stroke="#1F1111" stroke-linecap="round" stroke-linejoin="round"/>
<path d="M16.759 102.792C16.7041 103.249 16.9496 104.836 17.1976 106.027C17.4717 107.342 22.8447 107.452 25.4215 105.588" stroke="#1F1111" stroke-linecap="round" stroke-linejoin="round"/>
<path d="M17.2524 106.191C17.3804 106.684 18.5025 108.132 22.1868 108.658C26.7923 109.316 30.1915 112.002 30.9591 113.099" stroke="#1F1111" stroke-linecap="round" stroke-linejoin="round"/>
<path d="M21.3645 106.958C23.5576 107.196 28.9306 109.316 30.7947 112.002" stroke="#1F1111" stroke-linecap="round" stroke-linejoin="round"/>
<path d="M30.959 109.261C30.9955 110.394 30.959 112.583 30.959 112.934C30.959 113.373 32.8231 114.634 35.2903 114.963C37.6916 115.283 38.5867 114.98 40.1493 114.964C40.2356 114.963 40.3209 114.974 40.4038 114.998C41.5117 115.318 44.1335 116.36 45.9266 118.417C47.7907 120.555 50.861 122.255 57.5498 121.158" stroke="#1F1111" stroke-linecap="round" stroke-linejoin="round"/>
<path d="M46.3105 119.02C46.3105 119.312 46.3105 119.733 46.3105 120.171C46.3105 120.72 48.5036 122.2 50.7515 122.529C52.9994 122.858 56.3438 122.693 59.8527 122.529C63.3616 122.364 67.1446 123.187 71.4211 124.996C75.6976 126.805 80.8513 126.147 83.2636 124.009" stroke="#1F1111" stroke-linecap="round" stroke-linejoin="round"/>
<path d="M17.5267 106.904C17.3622 107.343 17.1868 108.724 17.8008 109.865C18.5684 111.29 24.4348 111.674 26.3538 112.442C28.2727 113.209 30.2464 114.58 31.5623 116.17C32.8781 117.76 37.2094 120.172 44.1724 116.882" stroke="#1F1111" stroke-linecap="round" stroke-linejoin="round"/>
<path d="M17.4717 108.823C17.49 109.316 17.5594 111.499 17.691 112.113C17.8555 112.88 19.6099 114.251 22.7899 114.306C25.3338 114.35 26.4815 114.068 26.7374 113.922C27.8522 114.488 30.323 116.038 31.288 117.705C31.4524 118.144 31.7814 118.582 31.8911 119.076C32.0007 119.569 32.4941 120.666 36.7158 121.159C40.9374 121.652 44.0077 123.736 46.5297 125.929C49.0518 128.122 50.3128 129.218 54.5892 128.89C58.0104 128.626 59.8526 127.61 60.346 127.135" stroke="#1F1111" stroke-linecap="round" stroke-linejoin="round"/>
<path d="M40.0602 118.308C39.4023 118.619 38.5799 119.24 36.332 119.788C38.5799 120.172 42.977 120.633 46.7491 124.668C49.8194 127.826 53.2102 127.179 57.2758 127.08C61.7715 126.97 64.4361 126.883 68.7345 128.944C73.0329 131.006 77.0133 130.589 79.316 130.26" stroke="#1F1111" stroke-linecap="round" stroke-linejoin="round"/>
<path d="M46.6393 120.994C46.5114 121.104 46.2774 121.608 46.3652 122.749C46.4748 124.174 48.2293 125.49 51.4092 125.655C54.5891 125.819 59.1397 125.106 63.5259 125.819C67.912 126.532 70.6533 128.506 75.0943 128.999C79.5352 129.492 83.8665 127.738 84.3051 124.229" stroke="#1F1111" stroke-linecap="round" stroke-linejoin="round"/>
<path d="M61.333 114.579C62.2468 115.109 65.6424 116.465 69.7215 116.334" stroke="#1F1111" stroke-linecap="round" stroke-linejoin="round"/>
<path d="M72.6273 115.073C68.8991 115.775 68.1864 118.143 68.296 119.24C68.424 119.989 69.4693 121.663 72.6273 122.365C76.5748 123.242 84.0312 121.323 90.3363 123.516C96.6413 125.71 103.166 126.861 106.072 124.449C108.977 122.036 106.236 117.65 101.137 117.595C96.0383 117.54 90.6104 118.253 85.5116 116.937C80.4127 115.621 77.2876 114.196 72.6273 115.073Z" stroke="#1F1111" stroke-linecap="round" stroke-linejoin="round"/>
<path d="M81.0706 128.231C80.5406 128.834 79.371 130.095 78.9324 130.315C80.6503 130.15 84.744 129.997 87.3757 130.698C90.6653 131.576 95.9286 133.933 99.4923 133.824C103.056 133.714 106.126 132.562 106.839 131.247" stroke="#1F1111" stroke-linecap="round" stroke-linejoin="round"/>
<path d="M77.9453 124.12C83.4828 123.407 88.2527 123.955 93.7902 125.929" stroke="#1F1111" stroke-linecap="round" stroke-linejoin="round"/>
<path d="M91.5422 125.216C91.5971 126.13 92.7046 128.133 96.6959 128.835C101.685 129.712 106.291 127.464 106.839 126.477C107.277 125.688 107.15 123.827 107.223 122.639" stroke="#1F1111" stroke-linecap="round" stroke-linejoin="round"/>
<path d="M91.8164 125.764C91.8164 126.767 91.8164 128.918 91.8164 129.492" stroke="#1F1111" stroke-linecap="round" stroke-linejoin="round"/>
<path d="M91.6394 126.094C91.1587 126.35 90.3415 127.173 90.9184 128.406C91.6394 129.948 96.2122 131.789 100.15 131.686C104.088 131.583 106.562 129.829 106.839 129.109" stroke="#1F1111" stroke-linecap="round" stroke-linejoin="round"/>
<path d="M91.4875 129.273C91.5241 130.004 91.6959 131.62 92.0906 132.234" stroke="#1F1111" stroke-linecap="round" stroke-linejoin="round"/>
<path d="M71.2117 0.603017C75.2506 0.54819 92.8572 0.394651 97.4187 1.97366C103.121 3.94741 121.268 12.6648 123.735 40.6812C125.435 59.9801 113.373 83.5556 101.037 85.4807L88.2353 87.095L75.4333 88.7093" stroke="#1F1111" stroke-linecap="round" stroke-linejoin="round"/>
<path d="M73.679 36.405C72.4729 39.3108 70.7184 46.0655 74.008 51.592" stroke="#1F1111" stroke-linecap="round" stroke-linejoin="round"/>
<path d="M79.5937 44.6285C79.5937 56.8362 71.996 66.4977 62.8781 66.4977C53.7602 66.4977 46.1626 56.8362 46.1626 44.6285C46.1626 32.4209 53.7602 22.7593 62.8781 22.7593C71.996 22.7593 79.5937 32.4209 79.5937 44.6285Z" stroke="#1F1111" stroke-linecap="round" stroke-linejoin="round"/>
<path d="M97.5768 44.7932C97.5768 54.5789 94.527 63.4199 89.6192 69.8041C84.7117 76.1877 77.9668 80.0949 70.5539 80.0949C63.1411 80.0949 56.3962 76.1877 51.4887 69.8041C46.5808 63.4199 43.531 54.5789 43.531 44.7932C43.531 35.0075 46.5808 26.1664 51.4887 19.7823C56.3962 13.3986 63.1411 9.49146 70.5539 9.49146C77.9668 9.49146 84.7117 13.3986 89.6192 19.7823C94.527 26.1664 97.5768 35.0075 97.5768 44.7932Z" stroke="#1F1111" stroke-linecap="round" stroke-linejoin="round"/>
<path d="M65.0724 28.148C65.027 28.4017 65.1819 28.6482 65.43 28.7176C68.3473 29.5324 71.0339 31.4979 72.8717 34.6659C74.7203 37.8526 75.6245 41.8201 75.3905 45.8329C75.1564 49.8464 73.8028 53.5823 71.6198 56.36C69.4399 59.1338 66.6049 60.7406 63.6634 60.9834C60.7268 61.2258 57.7771 60.1017 55.36 57.7294C52.9358 55.35 51.2257 51.8829 50.5952 47.9441C49.965 44.007 50.4652 39.9162 51.9888 36.4363C53.5129 32.9549 55.9347 30.3668 58.7508 29.0772C58.9444 28.9886 59.0606 28.7872 59.0404 28.5753L58.7637 25.6692L65.5155 25.6692L65.0724 28.148Z" stroke="#1F1111" stroke-linecap="round" stroke-linejoin="round"/>
<path d="M110.16 42.8806C110.344 48.6761 109.582 54.4575 107.92 59.8939C106.257 65.3303 103.728 70.3123 100.478 74.5569C97.2294 78.8013 93.326 82.2237 88.9945 84.6337C84.6635 87.0434 79.9876 88.395 75.233 88.6157C70.4785 88.8364 65.7323 87.9223 61.2639 85.9224C56.795 83.9222 52.6888 80.8736 49.1823 76.945C45.6758 73.0162 42.8389 68.2854 40.8376 63.0205C38.8362 57.7557 37.7107 52.0628 37.5268 46.2673C37.343 40.4718 38.1046 34.6905 39.7671 29.2541C41.4295 23.8176 43.9593 18.8357 47.2084 14.5911C50.4575 10.3466 54.3608 6.92427 58.6923 4.51427C63.0233 2.10453 67.6993 0.752968 72.4539 0.532242C77.2084 0.311521 81.9546 1.2256 86.423 3.22558C90.8918 5.22579 94.9981 8.27437 98.5045 12.203C102.011 16.1317 104.848 20.8625 106.849 26.1274C108.851 31.3922 109.976 37.0852 110.16 42.8807L110.16 42.8806Z" stroke="#1F1111" stroke-linecap="round" stroke-linejoin="round"/>
<path d="M62.9877 22.534C68.3607 21.5289 80.4664 22.2709 85.9052 33.28C92.7037 47.0415 85.5214 72.2069 60.9043 66.4501" stroke="#1F1111" stroke-linecap="round" stroke-linejoin="round"/>
<line x1="90.4661" y1="5.31551" x2="104.16" y2="5.4177" stroke="#1F1111" stroke-linecap="round"/>
<line x1="83.8967" y1="2.14562" x2="99.0161" y2="2.55703" stroke="#1F1111" stroke-linecap="round"/>
<line x1="98.1382" y1="11.6714" x2="111.503" y2="11.6714" stroke="#1F1111" stroke-linecap="round"/>
<line x1="110.2" y1="38.2078" x2="123.345" y2="38.2078" stroke="#1F1111" stroke-linecap="round"/>
<line x1="109.652" y1="55.094" x2="122.797" y2="55.094" stroke="#1F1111" stroke-linecap="round"/>
<line x1="107.239" y1="62.9893" x2="120.384" y2="62.9893" stroke="#1F1111" stroke-linecap="round"/>
<line x1="104.056" y1="69.8936" x2="117.311" y2="69.7917" stroke="#1F1111" stroke-linecap="round"/>
<line x1="100.214" y1="75.1539" x2="114.346" y2="74.9491" stroke="#1F1111" stroke-linecap="round"/>
<line x1="95.1568" y1="80.2941" x2="110.386" y2="79.6767" stroke="#1F1111" stroke-linecap="round"/>
<line x1="88.4347" y1="84.9807" x2="106.52" y2="83.1099" stroke="#1F1111" stroke-linecap="round"/>
<line x1="56.8156" y1="30.5297" x2="69.0853" y2="31.2395" stroke="#1F1111" stroke-linecap="round"/>
<line x1="53.9642" y1="33.5992" x2="72.1551" y2="34.6386" stroke="#1F1111" stroke-linecap="round"/>
<line x1="51.5815" y1="38.1282" x2="72.4031" y2="38.8607" stroke="#1F1111" stroke-linecap="round"/>
<line x1="50.4901" y1="49.1821" x2="71.7498" y2="48.7632" stroke="#1F1111" stroke-linecap="round"/>
<line x1="52.7041" y1="53.94" x2="73.1974" y2="52.8944" stroke="#1F1111" stroke-linecap="round"/>
<path d="M54.3137 56.9116L71.7782 55.9527" stroke="#1F1111" stroke-linecap="round"/>
<line x1="56.7433" y1="59.2982" x2="69.8922" y2="58.177" stroke="#1F1111" stroke-linecap="round"/>
<path d="M102.112 100.787L102.441 103.474L96.465 98.4846L90.7083 97.9363L92.0241 96.6205L96.7392 93.2761L103.647 88.6707L109.952 85.4359L118.505 81.5432L122.343 89.822L119.821 90.0413L113.132 91.3572L107.321 93.934L103.647 97.1688L102.112 100.787Z" fill="#EEEEEE"/>
<path d="M151.534 102.941C151.439 106.293 148.739 109.376 144.177 111.597C139.639 113.806 133.385 115.09 126.496 114.895C119.607 114.699 113.436 113.063 109.031 110.601C104.602 108.125 102.08 104.894 102.175 101.542C102.27 98.1895 104.971 95.1066 109.533 92.8856C114.071 90.6764 120.324 89.3927 127.213 89.588C134.103 89.7833 140.273 91.4191 144.679 93.8817C149.108 96.3576 151.629 99.5885 151.534 102.941Z" stroke="#1F1111" stroke-linecap="round" stroke-linejoin="round"/>
<path d="M156.582 102.447C156.467 106.5 153.125 110.207 147.521 112.865C141.946 115.511 134.268 117.042 125.816 116.802C117.37 116.563 109.808 114.44 104.404 111.324C98.9735 108.192 95.8485 104.141 95.9636 100.08C96.0802 95.966 98.3603 92.5653 103.317 90.1648C108.301 87.7506 115.956 86.3737 126.685 86.373C135.135 86.6135 142.711 88.5766 148.126 91.5326C153.57 94.504 156.697 98.3941 156.582 102.447Z" stroke="#1F1111" stroke-linecap="round" stroke-linejoin="round"/>
<path d="M156 99.5C156.127 100.902 157.137 106.023 156.832 109.882C156.341 112.575 151.71 122.223 131.062 122.952C109.253 123.722 99.3535 114.987 97.5556 111.116C96.6476 109.602 95.1802 105.058 96.575 99" stroke="#1F1111" stroke-linecap="round" stroke-linejoin="round"/>
<path d="M89.8858 109.091L88.4055 101.69L89.0634 103.17L90.8179 105.034L95.0944 105.802L102.66 106.295L111.707 105.802L121.74 104.322L131.39 101.69L144.329 96.8651L155.349 90.9439L160.612 86.5577L161.818 83.8164L163.408 88.9701V91.8759L162.202 93.9045L156.719 98.4003L150.031 102.622L141.094 106.844L127.223 110.517L117.902 112.436L109.952 113.313H105.347L97.8905 112.765L93.7785 111.778L91.3661 110.517L89.8858 109.091Z" fill="#EEEEEE" stroke="#1F1111"/>
<path fill-rule="evenodd" clip-rule="evenodd" d="M162.29 83.3302C162.27 81.5106 161.014 79.7357 158.752 78.4162C155.854 76.7257 151.206 75.6943 144.904 76.0812C132.354 76.8519 119.896 79.4414 106.229 86.9914C99.4281 90.7481 94.4706 93.8789 91.471 96.5035C89.9739 97.8135 88.9292 99.0272 88.4004 100.161C88.0266 100.962 87.907 101.735 88.0734 102.463C88.0691 102.503 88.0701 102.543 88.0769 102.584C88.2143 103.408 88.4339 104.691 88.6469 105.861C88.8572 107.018 89.0675 108.102 89.1855 108.503C89.3552 109.08 89.8686 110.188 91.7303 111.239C93.5717 112.278 96.7292 113.259 102.19 113.646C113.127 114.419 128.157 111.605 140.581 107.317C153.054 103.012 161.067 95.6717 163.084 93.3743C163.575 92.8152 163.776 92.0089 163.832 91.1636C163.889 90.3064 163.8 89.3369 163.644 88.3809C163.331 86.467 162.735 84.5328 162.405 83.514C162.382 83.4416 162.341 83.3793 162.29 83.3302ZM161.943 85.0272C161.492 86.0923 160.553 87.2799 159.163 88.5463C157.689 89.8898 155.675 91.3497 153.108 92.8746C147.974 95.9249 140.595 99.2542 130.814 102.441C115.12 107.555 99.4467 106.926 93.5427 105.966C91.4388 105.624 90.1092 104.981 89.2668 104.275C89.3487 104.744 89.4354 105.232 89.5209 105.702C89.7354 106.882 89.9364 107.908 90.0377 108.252C90.1421 108.607 90.5059 109.528 92.1668 110.465C93.848 111.414 96.8586 112.378 102.253 112.759C113.028 113.521 127.933 110.743 140.291 106.478C152.599 102.23 160.486 94.9865 162.416 92.7881C162.715 92.4481 162.895 91.8796 162.946 91.1051C162.996 90.3425 162.918 89.4472 162.767 88.5241C162.564 87.283 162.236 86.025 161.943 85.0272ZM144.959 76.9679C151.157 76.5873 155.61 77.6119 158.305 79.1835C161.005 80.7589 161.842 82.7963 161.183 84.5365C160.836 85.4554 159.99 86.5914 158.565 87.8897C157.148 89.1814 155.187 90.6067 152.655 92.1109C147.591 95.1189 140.276 98.4237 130.539 101.597C115.004 106.659 99.4775 106.031 93.6852 105.089C90.9285 104.641 89.745 103.677 89.2148 102.925C88.7952 102.245 88.7672 101.475 89.2054 100.536C89.6567 99.569 90.5925 98.4526 92.056 97.1721C94.9777 94.6155 99.8615 91.5236 106.658 87.769C120.185 80.2965 132.508 77.7324 144.959 76.9679Z" fill="#1F1111"/>
<path d="M155.129 91.1075C160.74 86.1 165.853 76.1947 138.791 77.072" stroke="#1F1111" stroke-linecap="round" stroke-linejoin="round"/>
<path d="M158.403 87.3542C159.719 82.036 135.94 80.5813 123.878 86.2284" stroke="#1F1111" stroke-linecap="round" stroke-linejoin="round"/>
<path d="M96.1362 99.1128C94.7655 99.7707 93.0439 101.766 95.5879 105.582" stroke="#1F1111" stroke-linecap="round" stroke-linejoin="round"/>
<line x1="90.8495" y1="98.495" x2="93.8279" y2="101.123" stroke="#1F1111" stroke-linecap="round"/>
<line x1="94.246" y1="94.998" x2="96.253" y2="97.5067" stroke="#1F1111" stroke-linecap="round"/>
<line x1="97.9768" y1="92.4483" x2="98.7474" y2="93.3374" stroke="#1F1111" stroke-linecap="round"/>
<line x1="107.4" y1="87.3524" x2="108.015" y2="88.1908" stroke="#1F1111" stroke-linecap="round"/>
<line x1="111.527" y1="85.0888" x2="112.331" y2="86.9148" stroke="#1F1111" stroke-linecap="round"/>
<line x1="118.209" y1="82.0352" x2="119.804" y2="85.9344" stroke="#1F1111" stroke-linecap="round"/>
<line x1="139.403" y1="77.4612" x2="140.231" y2="82.6144" stroke="#1F1111" stroke-linecap="round"/>
<line x1="147.006" y1="77.2175" x2="147.006" y2="82.1388" stroke="#1F1111" stroke-linecap="round"/>
<line x1="152.838" y1="78.4995" x2="152.125" y2="82.7764" stroke="#1F1111" stroke-linecap="round"/>
<line x1="155.948" y1="79.5298" x2="154.8" y2="83.5034" stroke="#1F1111" stroke-linecap="round"/>
<line x1="158.52" y1="81.4243" x2="157.242" y2="84.661" stroke="#1F1111" stroke-linecap="round"/>
<path d="M101.164 106.16C98.0754 103.4 93.5979 95.4141 107.14 88.6704" stroke="#1F1111" stroke-linecap="round"/>
<line x1="155.449" y1="107.153" x2="155.449" y2="112.842" stroke="#1F1111" stroke-linecap="round"/>
<line x1="152.489" y1="110.114" x2="152.489" y2="115.584" stroke="#1F1111" stroke-linecap="round"/>
<line x1="145.8" y1="114.281" x2="145.8" y2="119.75" stroke="#1F1111" stroke-linecap="round"/>
<line x1="122.199" y1="117.001" x2="122.199" y2="122.471" stroke="#1F1111" stroke-linecap="round"/>
<line x1="113.123" y1="115.048" x2="113.123" y2="120.518" stroke="#1F1111" stroke-linecap="round"/>
<line x1="110.053" y1="113.622" x2="110.053" y2="119.75" stroke="#1F1111" stroke-linecap="round"/>
<line x1="107.64" y1="113.513" x2="107.64" y2="118.763" stroke="#1F1111" stroke-linecap="round"/>
<line x1="105.337" y1="113.622" x2="105.337" y2="117.556" stroke="#1F1111" stroke-linecap="round"/>
<line x1="103.035" y1="113.513" x2="103.035" y2="116.461" stroke="#1F1111" stroke-linecap="round"/>
<line x1="91.3288" y1="105.301" x2="91.2634" y2="110.249" stroke="#1F1111" stroke-linecap="round"/>
<line x1="93.4639" y1="106.359" x2="93.4639" y2="111.745" stroke="#1F1111" stroke-linecap="round"/>
<line x1="95.5925" y1="106.359" x2="95.5925" y2="111.745" stroke="#1F1111" stroke-linecap="round"/>
<line x1="98.7852" y1="106.359" x2="98.7852" y2="112.809" stroke="#1F1111" stroke-linecap="round"/>
<line x1="105.171" y1="106.359" x2="105.171" y2="112.809" stroke="#1F1111" stroke-linecap="round"/>
<line x1="139.356" y1="99.7981" x2="141.464" y2="106.411" stroke="#1F1111" stroke-linecap="round"/>
<line x1="149.796" y1="94.2981" x2="152.682" y2="100.84" stroke="#1F1111" stroke-linecap="round"/>
<line x1="156.409" y1="90.166" x2="158.878" y2="96.1497" stroke="#1F1111" stroke-linecap="round"/>
<line x1="158.533" y1="89.1128" x2="160.798" y2="94.8711" stroke="#1F1111" stroke-linecap="round"/>
<line x1="160.655" y1="86.9975" x2="162.941" y2="93.1869" stroke="#1F1111" stroke-linecap="round"/>
</g>
</svg>
