<svg width="82" height="126" viewBox="0 0 82 126" fill="none" xmlns="http://www.w3.org/2000/svg">
<g opacity="0.8">
<circle cx="48.8054" cy="19.1855" r="11.2556" transform="rotate(0.23552 48.8054 19.1855)" stroke="#1F1111"/>
<path d="M59.6846 22.4979L63.3154 22.5128L63.2736 32.6791C63.2617 35.5837 59.6229 37.5052 57.808 37.3767L37.4755 37.2931C34.8614 37.2824 33.0035 35.8224 32.4014 35.0938L32.4208 30.3737L45.8547 30.429C53.1708 30.3417 57.1192 28.2967 59.6846 22.4979Z" stroke="#1F1111" stroke-linejoin="round"/>
<path d="M37.5646 15.5137L32.4815 15.4928L32.5233 5.32654C32.5352 2.4219 36.174 0.5004 37.9889 0.628889L59.7737 0.718437C62.3878 0.729183 63.4045 0.733362 63.3955 2.91184L63.3867 5.0551C63.3824 6.09737 62.5784 6.96161 61.5392 7.04106L54.2991 7.59456L50.6683 7.57964C43.3522 7.66693 40.13 9.71484 37.5646 15.5137Z" stroke="#1F1111" stroke-linejoin="round"/>
<path d="M32.7053 35.042C26.9592 33.9821 22.6918 47.762 23.1455 63.1352C23.5991 78.5085 27.9645 90.853 32.8957 90.7075C37.827 90.562 41.4568 77.9815 41.0032 62.6083C40.9065 59.3307 40.6319 56.1908 40.212 53.2802" stroke="#1F1111"/>
<path d="M32.4208 30.3735C25.5222 30.3453 21.0764 45.2715 21.6047 63.1753C22.1331 81.079 27.3596 95.4513 33.2786 95.2766C39.1975 95.102 43.5675 80.4465 43.0392 62.5427C42.9202 58.5104 42.5629 54.6572 42.013 51.1089L39.9519 53.1531" stroke="#1F1111" stroke-linejoin="round"/>
<path d="M33.2576 3.43083C32.4777 3.15286 30.2032 3.41802 27.8035 5.30201C19.0612 12.1647 12.8838 32.835 13.7666 62.7492C14.7305 95.4156 23.9601 121.648 34.3814 121.34C40.1298 121.171 45.0401 112.961 48.126 100.151" stroke="#1F1111"/>
<path d="M32.4819 15.4872C25.1785 25.6236 21.2024 42.9714 21.7672 62.1121C22.3364 81.402 26.6752 103.356 37.9045 109.548" stroke="#1F1111"/>
<path d="M32.4864 14.3976C21.9661 12.1763 16.5017 40.8377 17.1258 61.9873C17.6974 81.3554 21.5857 104.762 31.7278 110.613C33.4182 111.588 37.168 112.087 40.4566 107.018C43.6378 102.114 44.7348 96.7479 45.2274 94.6925" stroke="#1F1111"/>
<path d="M39.6604 124.08C46.5589 124.108 50.3999 124.304 54.1836 124.139C61.8097 123.808 67.5045 122.258 67.9896 122.018C69.5664 121.177 73.1584 118.844 74.912 116.237C78.5651 110.806 79.5552 105.484 80.7809 101.737" stroke="#1F1111" stroke-linejoin="round"/>
<path d="M35.8667 37.2863C31.6599 38.7214 28.5459 49.0949 28.9412 62.4927C29.3366 75.8904 32.3465 86.6721 35.6641 86.5742C37.2725 86.5808 38.0043 85.2225 39.107 81.9592" stroke="#1F1111"/>
<path d="M57.7055 37.2008C53.8096 38.4495 51.2442 44.2484 51.2173 50.7838" stroke="#1F1111"/>
<path d="M59.7093 37.2091C57.2374 37.2002 55.0796 42.7398 54.0298 50.7952" stroke="#1F1111"/>
<circle cx="63.0779" cy="80.2427" r="10.7556" transform="rotate(0.23552 63.0779 80.2427)" stroke="#1F1111"/>
<path d="M74.5611 79.9267C74.536 86.0392 69.2413 91.0236 62.6707 90.9966C56.1 90.9696 50.8465 85.9418 50.8717 79.8293C50.8968 73.7169 56.1914 68.7325 62.7621 68.7595C69.3327 68.7865 74.5862 73.8142 74.5611 79.9267Z" stroke="#1F1111"/>
<path d="M67.723 98.4243C65.4686 95.9674 62.0864 94.3988 58.2994 94.3832C56.4874 94.3758 54.765 94.7247 53.2122 95.3577" stroke="#1F1111"/>
<path d="M51.0395 93.9904L45.5903 94.6942C45.5883 95.1783 46.0167 96.9471 47.7464 100.149C49.476 103.352 53.0561 103.923 54.63 103.808C60.6828 103.47 73.7327 102.725 77.5099 102.45C82.2315 102.107 80.7836 101.011 80.0634 99.556C79.4873 98.3918 77.4058 98.3348 76.4371 98.4518L61.1878 98.3892C56.8308 98.3712 52.6078 95.2071 51.0395 93.9904Z" stroke="#1F1111" stroke-linejoin="round"/>
<path d="M26.9595 33.9822C28.0321 29.7657 30.2728 25.2795 34.9876 24.2119L35.001 20.9442C33.7907 20.9392 30.5646 22.5961 28.8122 24.9127C26.9869 27.3257 25.5236 29.9823 24.418 33.9717" stroke="#1F1111" stroke-linejoin="round"/>
<path d="M36.7924 26.761L34.9875 24.2119L35.0009 20.9442L36.8208 19.8624C37.2616 22.9486 38.0172 24.9153 40.4232 26.7759L36.7924 26.761Z" stroke="#1F1111" stroke-linejoin="round"/>
<path d="M36.438 26.6458C34.3755 27.2984 32.9315 28.7502 32.4215 30.6294" stroke="#1F1111" stroke-linejoin="round"/>
<path d="M37.4692 19.1501C33.9671 19.6357 30.4548 22.6213 27.9405 26.111" stroke="#1F1111" stroke-linejoin="round"/>
<path d="M39.6973 26.7728C37.6342 27.5907 36.732 28.4783 35.3254 30.3857" stroke="#1F1111" stroke-linejoin="round"/>
<path d="M61.162 16.3314C61.1668 15.1695 60.1988 15.1171 59.7142 15.2361C60.0108 18.5647 59.9086 19.0191 59.6903 21.0454L61.1456 20.3252L61.162 16.3314Z" stroke="#1F1111" stroke-linejoin="round"/>
<path d="M42.1384 51.1098L57.7508 51.1739C58.7191 51.1779 61.3096 51.0433 63.9262 50.4731C66.5427 49.903 69.6224 48.5601 70.8351 47.9599M70.8351 47.9599C71.0702 49.6553 71.5386 53.4817 71.5315 55.2245C71.5243 56.9673 71.5006 62.7282 71.4897 65.3908M70.8351 47.9599L76.2813 47.9823C76.6325 50.8885 77.6949 57.4284 77.6441 69.7731C77.5975 81.1012 73.5507 93.962 71.7169 98.4325" stroke="#1F1111" stroke-linejoin="round"/>
<path d="M77.659 66.1422L48.9743 66.3874C48.8373 70.2597 48.3402 79.3106 47.4473 84.5354C46.3312 91.0664 42.6422 105.212 35.0235 103.728C29.8344 102.717 27.7962 95.3472 26.3588 91.7104C25.2089 88.801 24.6874 86.1362 24.5703 85.1675" stroke="#1F1111" stroke-linejoin="round"/>
<path d="M28.5361 92.0825C29.9769 94.872 32.134 100.085 36.1279 100.102C39.8306 100.117 43.772 95.4129 45.6217 87.0695C47.1015 80.3948 47.7493 70.0132 47.8882 65.6567L74.3931 65.7657L77.2977 65.7776" stroke="#1F1111" stroke-linejoin="round"/>
<path d="M33.2426 95.3694L42.6842 95.0452" stroke="#1F1111" stroke-linejoin="round"/>
<line x1="32.791" y1="39.687" x2="54.791" y2="39.687" stroke="#1F1111"/>
<line x1="31.791" y1="41.687" x2="52.791" y2="41.687" stroke="#1F1111"/>
<line x1="30.791" y1="44.687" x2="51.791" y2="44.687" stroke="#1F1111"/>
<line x1="29.791" y1="47.687" x2="51.791" y2="47.687" stroke="#1F1111"/>
<line x1="28.791" y1="55.687" x2="40.791" y2="55.687" stroke="#1F1111"/>
<line x1="28.791" y1="62.687" x2="40.791" y2="62.687" stroke="#1F1111"/>
<line x1="28.791" y1="68.687" x2="40.791" y2="68.687" stroke="#1F1111"/>
<line x1="29.791" y1="71.687" x2="40.791" y2="71.687" stroke="#1F1111"/>
<line x1="29.791" y1="74.687" x2="40.791" y2="74.687" stroke="#1F1111"/>
<line x1="30.791" y1="77.687" x2="39.791" y2="77.687" stroke="#1F1111"/>
<line x1="31.791" y1="80.687" x2="39.791" y2="80.687" stroke="#1F1111"/>
<line x1="32.791" y1="83.687" x2="38.791" y2="83.687" stroke="#1F1111"/>
<line x1="42.791" y1="122.687" x2="65.791" y2="122.687" stroke="#1F1111"/>
<line x1="9.03516" y1="121.545" x2="31.0352" y2="121.545" stroke="#1F1111" stroke-linecap="round" stroke-dasharray="2 2"/>
<line x1="6.03516" y1="118.545" x2="28.0352" y2="118.545" stroke="#1F1111" stroke-linecap="round" stroke-dasharray="2 2"/>
<line x1="3.03516" y1="115.545" x2="25.0352" y2="115.545" stroke="#1F1111" stroke-linecap="round" stroke-dasharray="2 2"/>
<line x1="1.03516" y1="112.545" x2="23.0352" y2="112.545" stroke="#1F1111" stroke-linecap="round" stroke-dasharray="2 2"/>
<line x1="45.791" y1="120.687" x2="69.791" y2="120.687" stroke="#1F1111"/>
<line x1="14.0352" y1="124.545" x2="37.0352" y2="124.545" stroke="#1F1111" stroke-linecap="round" stroke-dasharray="2 2"/>
<line x1="46.791" y1="118.687" x2="72.791" y2="118.687" stroke="#1F1111"/>
<line x1="48.791" y1="116.687" x2="74.791" y2="116.687" stroke="#1F1111"/>
<line x1="50.791" y1="113.687" x2="76.791" y2="113.687" stroke="#1F1111"/>
<line x1="51.5167" y1="110.546" x2="78.5166" y2="109.546" stroke="#1F1111"/>
<line x1="53.7718" y1="106.687" x2="79.7718" y2="105.687" stroke="#1F1111"/>
<path d="M37.6262 0.621902C30.0014 0.590584 24.5328 6.01437 20.1326 16.5256M54.4292 103.444C50.6346 116.065 44.8486 124.094 38.156 124.292C34.2233 124.408 30.4436 121.806 27.0755 117.129" stroke="#1F1111"/>
</g>
</svg>
