<svg width="156" height="118" viewBox="0 0 156 118" fill="none" xmlns="http://www.w3.org/2000/svg">
<g opacity="0.8">
<line x1="2.78711" y1="112.578" x2="14.3673" y2="112.578" stroke="#1F1111" stroke-linecap="round" stroke-dasharray="2 2"/>
<line x1="0.5" y1="109.147" x2="14.3675" y2="109.147" stroke="#1F1111" stroke-linecap="round" stroke-dasharray="2 2"/>
<line x1="6.21826" y1="116.009" x2="17.7984" y2="116.009" stroke="#1F1111" stroke-linecap="round" stroke-dasharray="2 2"/>
<line x1="39.3843" y1="109.147" x2="88.7049" y2="109.147" stroke="#1F1111" stroke-linecap="round" stroke-dasharray="2 2"/>
<line x1="46.2461" y1="112.578" x2="95.5667" y2="112.578" stroke="#1F1111" stroke-linecap="round" stroke-dasharray="2 2"/>
<line x1="59.9697" y1="116.009" x2="120.727" y2="116.009" stroke="#1F1111" stroke-linecap="round" stroke-dasharray="2 2"/>
<line x1="33.666" y1="105.716" x2="57.8263" y2="105.716" stroke="#1F1111" stroke-linecap="round" stroke-dasharray="2 2"/>
<line x1="32.5225" y1="102.285" x2="42.959" y2="102.285" stroke="#1F1111" stroke-linecap="round" stroke-dasharray="2 2"/>
<line x1="31.3784" y1="98.854" x2="38.384" y2="98.854" stroke="#1F1111" stroke-linecap="round" stroke-dasharray="2 2"/>
<line x1="31.3784" y1="95.4229" x2="36.0967" y2="95.4229" stroke="#1F1111" stroke-linecap="round" stroke-dasharray="2 2"/>
<line x1="31.3784" y1="91.9922" x2="38.384" y2="91.9922" stroke="#1F1111" stroke-linecap="round" stroke-dasharray="2 2"/>
<line x1="45.1025" y1="12.9368" x2="45.1025" y2="98.8542" stroke="#1F1111" stroke-linecap="round" stroke-linejoin="round"/>
<line x1="47.3896" y1="12.9368" x2="47.3896" y2="99.9979" stroke="#1F1111" stroke-linecap="round" stroke-linejoin="round"/>
<line x1="42.8149" y1="11.793" x2="42.8149" y2="97.7104" stroke="#1F1111" stroke-linecap="round" stroke-linejoin="round"/>
<line x1="40.5278" y1="11.793" x2="40.5278" y2="95.4231" stroke="#1F1111" stroke-linecap="round" stroke-linejoin="round"/>
<line x1="39.3843" y1="10.6487" x2="39.3843" y2="95.4225" stroke="#1F1111" stroke-linecap="round" stroke-linejoin="round"/>
<line x1="53.1079" y1="14.0803" x2="53.1079" y2="101.141" stroke="#1F1111" stroke-linecap="round" stroke-linejoin="round"/>
<line x1="77.1245" y1="15.2241" x2="77.1245" y2="103.429" stroke="#1F1111" stroke-linecap="round" stroke-linejoin="round"/>
<line x1="79.4121" y1="15.2241" x2="79.4121" y2="103.429" stroke="#1F1111" stroke-linecap="round" stroke-linejoin="round"/>
<line x1="81.6992" y1="15.2241" x2="81.6992" y2="103.429" stroke="#1F1111" stroke-linecap="round" stroke-linejoin="round"/>
<line x1="83.9863" y1="15.2241" x2="83.9863" y2="103.429" stroke="#1F1111" stroke-linecap="round" stroke-linejoin="round"/>
<line x1="86.2739" y1="14.0803" x2="86.2739" y2="102.285" stroke="#1F1111" stroke-linecap="round" stroke-linejoin="round"/>
<line x1="88.561" y1="14.0803" x2="88.561" y2="43.9589" stroke="#1F1111" stroke-linecap="round" stroke-linejoin="round"/>
<line x1="90.8486" y1="14.0803" x2="90.8486" y2="38.2406" stroke="#1F1111" stroke-linecap="round" stroke-linejoin="round"/>
<line x1="93.1357" y1="14.0803" x2="93.1357" y2="37.097" stroke="#1F1111" stroke-linecap="round" stroke-linejoin="round"/>
<line x1="104.572" y1="11.793" x2="104.572" y2="35.9533" stroke="#1F1111" stroke-linecap="round" stroke-linejoin="round"/>
<line x1="105.716" y1="10.6487" x2="105.716" y2="34.809" stroke="#1F1111" stroke-linecap="round" stroke-linejoin="round"/>
<line x1="102.285" y1="11.793" x2="102.285" y2="35.9533" stroke="#1F1111" stroke-linecap="round" stroke-linejoin="round"/>
<line x1="99.9976" y1="12.9368" x2="99.9976" y2="35.9534" stroke="#1F1111" stroke-linecap="round" stroke-linejoin="round"/>
<line x1="88.561" y1="50.677" x2="88.561" y2="101.141" stroke="#1F1111" stroke-linecap="round" stroke-linejoin="round"/>
<path d="M34.8816 16.4392H33.1496C32.5501 16.4392 32.0853 16.9631 32.1568 17.5584L33.6624 30.1057C33.7085 30.4898 33.9721 30.8129 34.3391 30.9352L38.8844 32.4503" stroke="#1F1111" stroke-linecap="round" stroke-linejoin="round"/>
<path d="M110.362 16.4392H112.094C112.694 16.4392 113.159 16.9631 113.087 17.5584L111.578 30.1312C111.534 30.502 111.286 30.8172 110.937 30.9483L106.931 32.4503" stroke="#1F1111" stroke-linecap="round" stroke-linejoin="round"/>
<path d="M37.9824 92.4922C37.0801 93.4394 36.5967 94.4404 36.5967 95.4756C36.5967 101.407 52.4696 106.216 72.0499 106.216C78.9853 106.216 85.4556 105.613 90.9201 104.57" stroke="#1F1111" stroke-linecap="round" stroke-linejoin="round"/>
<ellipse cx="72.6217" cy="6.71825" rx="36.025" ry="5.71825" stroke="#1F1111" stroke-linecap="round" stroke-linejoin="round"/>
<path d="M108.647 7.86182C108.647 11.6515 92.5177 14.7237 72.6217 14.7237C52.7256 14.7237 36.5967 11.6515 36.5967 7.86182" stroke="#1F1111" stroke-linecap="round" stroke-linejoin="round"/>
<path d="M37.7407 92.4922C37.7407 98.8084 53.1016 103.929 72.0503 103.929C78.7776 103.929 85.0526 103.283 90.3487 102.168" stroke="#1F1111" stroke-linecap="round" stroke-linejoin="round"/>
<path d="M37.7407 41.0278C37.7407 44.8176 53.3576 47.8897 72.6221 47.8897C77.0575 47.8897 81.2996 47.7269 85.2022 47.4299" stroke="#1F1111" stroke-linecap="round" stroke-linejoin="round"/>
<path d="M107.503 23.8728C107.503 27.0309 91.8865 29.5911 72.6221 29.5911C53.3576 29.5911 37.7407 27.0309 37.7407 23.8728" stroke="#1F1111" stroke-linecap="round" stroke-linejoin="round"/>
<path d="M104.644 6.14654C104.644 7.72559 90.367 9.57749 72.05 9.57749C53.733 9.57749 40.5996 7.72559 40.5996 6.14654C46.8897 1.57188 98.354 1.57193 104.644 6.14654Z" stroke="#1F1111" stroke-linecap="round" stroke-linejoin="round"/>
<line x1="38.3843" y1="93.136" x2="38.3843" y2="10.6495" stroke="#1F1111" stroke-linecap="round" stroke-linejoin="round"/>
<line x1="107.003" y1="34.8096" x2="107.003" y2="10.6493" stroke="#1F1111" stroke-linecap="round" stroke-linejoin="round"/>
<path d="M107.503 13.5803H109.791C110.992 16.2604 110.887 17.7609 109.791 20.4422H107.503V13.5803Z" stroke="#1F1111" stroke-linecap="round" stroke-linejoin="round"/>
<path d="M37.459 13.5803H35.1717C33.9709 16.2604 34.0751 17.7609 35.1717 20.4422H37.459V13.5803Z" stroke="#1F1111" stroke-linecap="round" stroke-linejoin="round"/>
<line x1="97.0767" y1="44.5115" x2="97.0767" y2="109.644" stroke="#1F1111" stroke-linecap="round" stroke-linejoin="round"/>
<line x1="99.0405" y1="44.5115" x2="99.0405" y2="110.515" stroke="#1F1111" stroke-linecap="round" stroke-linejoin="round"/>
<line x1="95.1123" y1="43.6411" x2="95.1123" y2="108.774" stroke="#1F1111" stroke-linecap="round" stroke-linejoin="round"/>
<line x1="102.807" y1="45.3809" x2="102.807" y2="111.384" stroke="#1F1111" stroke-linecap="round" stroke-linejoin="round"/>
<line x1="108.861" y1="46.2517" x2="108.861" y2="112.255" stroke="#1F1111" stroke-linecap="round" stroke-linejoin="round"/>
<line x1="141.169" y1="44.959" x2="141.169" y2="110.291" stroke="#1F1111" stroke-linecap="round" stroke-linejoin="round"/>
<line x1="143.457" y1="44.959" x2="143.457" y2="109.147" stroke="#1F1111" stroke-linecap="round" stroke-linejoin="round"/>
<line x1="145.744" y1="43.8152" x2="145.744" y2="108.003" stroke="#1F1111" stroke-linecap="round" stroke-linejoin="round"/>
<line x1="148.031" y1="43.8152" x2="148.031" y2="106.86" stroke="#1F1111" stroke-linecap="round" stroke-linejoin="round"/>
<path d="M88.229 47.0569H86.9185C86.3129 47.0569 85.8463 47.591 85.9275 48.1911L87.1601 57.2925C87.213 57.6829 87.4901 58.0058 87.8678 58.1174L91.6662 59.2393" stroke="#1F1111" stroke-linecap="round" stroke-linejoin="round"/>
<path d="M153.044 47.0569H154.355C154.96 47.0569 155.427 47.591 155.346 48.1911L154.11 57.3159C154.059 57.6942 153.797 58.0103 153.434 58.1307L150.098 59.2393" stroke="#1F1111" stroke-linecap="round" stroke-linejoin="round"/>
<path d="M90.892 104.923C90.1173 105.644 89.7021 106.405 89.7021 107.193C89.7021 111.706 103.332 115.365 120.146 115.365C136.959 115.365 150.589 111.706 150.589 107.193C150.589 106.57 150.329 105.963 149.837 105.38" stroke="#1F1111" stroke-linecap="round" stroke-linejoin="round"/>
<ellipse cx="120.637" cy="39.6604" rx="30.9345" ry="4.35085" stroke="#1F1111" stroke-linecap="round" stroke-linejoin="round"/>
<path d="M151.571 40.53C151.571 43.4135 137.721 45.751 120.637 45.751C103.552 45.751 89.7021 43.4135 89.7021 40.53" stroke="#1F1111" stroke-linecap="round" stroke-linejoin="round"/>
<path d="M149.607 104.923C149.607 109.729 136.417 113.625 120.146 113.625C103.874 113.625 90.6841 109.729 90.6841 104.923" stroke="#1F1111" stroke-linecap="round" stroke-linejoin="round"/>
<path d="M150.589 65.7656C150.589 68.6491 137.179 70.9866 120.637 70.9866C104.094 70.9866 90.6841 68.6491 90.6841 65.7656" stroke="#1F1111" stroke-linecap="round" stroke-linejoin="round"/>
<path d="M150.589 52.7126C150.589 55.1156 137.179 57.0635 120.637 57.0635C104.094 57.0635 90.6841 55.1156 90.6841 52.7126" stroke="#1F1111" stroke-linecap="round" stroke-linejoin="round"/>
<path d="M148.134 39.2253C148.134 40.4267 135.874 41.8358 120.145 41.8358C104.417 41.8358 93.1392 40.4267 93.1392 39.2253C98.5404 35.7445 142.733 35.7446 148.134 39.2253Z" stroke="#1F1111" stroke-linecap="round" stroke-linejoin="round"/>
<line x1="91.1665" y1="105.293" x2="91.1665" y2="42.7711" stroke="#1F1111" stroke-linecap="round" stroke-linejoin="round"/>
<line x1="150.089" y1="105.293" x2="150.089" y2="42.7711" stroke="#1F1111" stroke-linecap="round" stroke-linejoin="round"/>
<path d="M150.589 44.8818H152.553C153.584 46.921 153.495 48.0627 152.553 50.1029H150.589V44.8818Z" stroke="#1F1111" stroke-linecap="round" stroke-linejoin="round"/>
<path d="M90.4424 44.8818H88.4783C87.4471 46.921 87.5367 48.0627 88.4783 50.1029H90.4424V44.8818Z" stroke="#1F1111" stroke-linecap="round" stroke-linejoin="round"/>
<line x1="29.0913" y1="87.2737" x2="29.0913" y2="114.865" stroke="#1F1111" stroke-linecap="round" stroke-linejoin="round"/>
<line x1="26.8037" y1="88.4177" x2="26.8037" y2="116.009" stroke="#1F1111" stroke-linecap="round" stroke-linejoin="round"/>
<line x1="16.5107" y1="87.2737" x2="16.5107" y2="114.865" stroke="#1F1111" stroke-linecap="round" stroke-linejoin="round"/>
<line x1="24.5166" y1="88.4177" x2="24.5166" y2="116.009" stroke="#1F1111" stroke-linecap="round" stroke-linejoin="round"/>
<ellipse cx="22.8728" cy="81.0554" rx="9.14921" ry="2.2873" stroke="#1F1111"/>
<ellipse cx="22.8726" cy="81.0555" rx="6.86191" ry="1.14365" stroke="#1F1111"/>
<path d="M32.022 81.0554V85.63C32.022 86.8933 27.9258 87.9173 22.8728 87.9173C17.8199 87.9173 13.7236 86.8933 13.7236 85.63V81.6272" stroke="#1F1111"/>
<path d="M30.8783 86.7737V113.84C30.8783 115.314 27.2941 116.509 22.8727 116.509C18.4514 116.509 14.8672 115.314 14.8672 113.84V86.7737" stroke="#1F1111"/>
<line x1="17.2985" y1="79.433" x2="28.735" y2="82.8639" stroke="#1F1111"/>
<path d="M14.8672 91.9204C21.8705 93.7844 25.4024 93.868 30.8783 91.9204" stroke="#1F1111"/>
<path d="M14.8672 99.3535C21.8705 101.217 25.4024 101.301 30.8783 99.3535" stroke="#1F1111"/>
<path d="M14.8672 109.647C21.8705 111.511 25.4024 111.595 30.8783 109.647" stroke="#1F1111"/>
</g>
</svg>
