<svg width="205" height="108" viewBox="0 0 205 108" fill="none" xmlns="http://www.w3.org/2000/svg">
<path d="M204.994 63.8876H199.745C198.091 63.8936 196.751 63.629 195.717 63.1059C194.682 62.5768 193.925 61.7591 193.45 60.6468C192.969 59.5405 192.734 58.1156 192.74 56.378C192.74 55.1454 192.879 54.0632 193.149 53.1252C193.42 52.1933 193.835 51.4117 194.388 50.7924C194.977 50.125 195.729 49.626 196.648 49.2953C197.562 48.9706 198.645 48.8022 199.889 48.8022H205V51.4958H200.274C199.583 51.4958 198.993 51.574 198.506 51.7303C198.013 51.8867 197.616 52.1211 197.31 52.4218C196.63 53.1252 196.294 54.3458 196.294 56.0834C196.294 57.0213 196.372 57.821 196.516 58.4763C196.666 59.1377 196.895 59.6548 197.196 60.0396C197.809 60.8092 198.867 61.194 200.382 61.194H204.994V63.8876Z" fill="#AB2421"/>
<path d="M190.445 63.8876H187.39V52.8306L181.221 63.8876H177.283V48.8022H180.338V60.0456L186.35 48.8022H190.445V63.8876Z" fill="#AB2421"/>
<path d="M174.935 59.8832C174.935 60.5506 174.845 61.1278 174.659 61.6148C174.479 62.1019 174.202 62.5047 173.823 62.8233C173.414 63.1721 172.879 63.4366 172.212 63.617C171.55 63.7914 170.757 63.8876 169.843 63.8876H161.498V48.8022H170.023C170.883 48.8022 171.629 48.8924 172.26 49.0788C172.891 49.2592 173.414 49.5418 173.823 49.9146C174.196 50.2452 174.473 50.6421 174.659 51.1171C174.845 51.592 174.935 52.1392 174.935 52.7645C174.929 53.2876 174.839 53.7926 174.653 54.2676C174.466 54.7486 174.214 55.1695 173.883 55.5362C173.553 55.897 173.174 56.1796 172.741 56.3599C173.474 56.6846 174.028 57.1416 174.388 57.7308C174.755 58.32 174.935 59.0355 174.935 59.8832ZM171.382 53.1433C171.382 52.8366 171.346 52.5841 171.274 52.3797C171.208 52.1692 171.099 52.0129 170.949 51.8987C170.781 51.7604 170.546 51.6582 170.246 51.592C169.945 51.5259 169.578 51.4898 169.139 51.4898H164.708V54.9951H169.073C169.524 54.9951 169.909 54.953 170.222 54.8749C170.54 54.7907 170.781 54.6644 170.949 54.4961C171.093 54.3578 171.208 54.1774 171.274 53.9549C171.346 53.7325 171.382 53.4619 171.382 53.1433ZM171.406 59.3421C171.4 58.789 171.208 58.3741 170.817 58.1036C170.426 57.827 169.873 57.6947 169.145 57.6947H164.714V61.2H169.079C169.897 61.194 170.492 61.0376 170.865 60.719C171.232 60.4003 171.412 59.9434 171.406 59.3421Z" fill="#AB2421"/>
<path d="M159.443 53.7144C159.443 54.4239 159.347 55.0673 159.155 55.6324C158.968 56.2036 158.686 56.6966 158.313 57.1295C157.874 57.6286 157.321 58.0013 156.665 58.2479C156.004 58.5004 155.235 58.6206 154.357 58.6206H149.198V63.8936H145.987V48.8022H153.521C154.639 48.8022 155.601 48.9285 156.407 49.1931C157.213 49.4516 157.856 49.8364 158.343 50.3414C158.716 50.7383 158.992 51.2133 159.179 51.7724C159.353 52.3316 159.443 52.9749 159.443 53.7144ZM155.914 53.6002C155.914 53.2274 155.878 52.9088 155.806 52.6502C155.74 52.3917 155.631 52.1873 155.481 52.037C155.313 51.8566 155.072 51.7183 154.76 51.6281C154.447 51.5379 154.068 51.4898 153.629 51.4898H149.198V55.921H153.563C154.152 55.921 154.621 55.8429 154.964 55.6805C155.313 55.5182 155.553 55.2597 155.703 54.9169C155.848 54.5802 155.92 54.1413 155.914 53.6002Z" fill="#AB2421"/>
<path d="M143.455 63.8876H139.27C137.99 63.8876 136.877 63.7613 135.933 63.5208C134.983 63.2683 134.196 62.9075 133.576 62.4205C132.831 61.8193 132.272 61.0076 131.899 59.9915C131.526 58.9694 131.34 57.7308 131.34 56.2698C131.34 55.0011 131.502 53.8948 131.833 52.9388C132.158 51.9889 132.645 51.1892 133.288 50.5459C133.865 49.9687 134.551 49.5358 135.344 49.2412C136.138 48.9526 137.034 48.8022 138.038 48.8022H143.467V51.4958H139.282C138.411 51.4958 137.689 51.562 137.124 51.6943C136.553 51.8265 136.138 52.0249 135.867 52.2835C135.651 52.4999 135.47 52.8306 135.326 53.2876C135.176 53.7445 135.068 54.3277 134.989 55.0432H143.473V57.7368H134.989C135.044 58.3801 135.17 58.9273 135.356 59.3782C135.549 59.8291 135.801 60.1899 136.12 60.4484C136.45 60.6949 136.883 60.8813 137.43 61.0076C137.978 61.1338 138.639 61.194 139.421 61.194H143.467V63.8876H143.455Z" fill="#AB2421"/>
<path d="M129.86 63.8876H124.611C122.957 63.8936 121.616 63.629 120.582 63.1059C119.548 62.5768 118.791 61.7591 118.316 60.6468C117.835 59.5405 117.6 58.1156 117.6 56.378C117.6 55.1454 117.738 54.0632 118.009 53.1252C118.28 52.1933 118.694 51.4117 119.248 50.7924C119.837 50.125 120.588 49.626 121.502 49.2953C122.416 48.9706 123.498 48.8022 124.743 48.8022H129.854V51.4958H125.128C124.436 51.4958 123.847 51.574 123.36 51.7303C122.867 51.8867 122.47 52.1211 122.164 52.4218C121.484 53.1252 121.147 54.3458 121.147 56.0834C121.147 57.0213 121.226 57.821 121.37 58.4763C121.52 59.1377 121.749 59.6548 122.055 60.0396C122.669 60.8092 123.727 61.194 125.242 61.194H129.854V63.8876H129.86Z" fill="#AB2421"/>
<path d="M117.809 51.4958H113.059V63.8876H109.848V51.4958H105.255V48.8022H117.809V51.4958Z" fill="#AB2421"/>
<path d="M104.392 53.7144C104.392 54.4239 104.296 55.0673 104.103 55.6324C103.917 56.2036 103.634 56.6966 103.262 57.1295C102.823 57.6286 102.27 58.0013 101.614 58.2479C100.953 58.5004 100.183 58.6206 99.3054 58.6206H94.1467V63.8936H90.936V48.8022H98.4697C99.588 48.8022 100.55 48.9285 101.356 49.1931C102.161 49.4516 102.805 49.8364 103.292 50.3414C103.664 50.7383 103.941 51.2133 104.121 51.7724C104.302 52.3316 104.392 52.9749 104.392 53.7144ZM100.869 53.6002C100.869 53.2274 100.833 52.9088 100.76 52.6502C100.694 52.3917 100.586 52.1873 100.436 52.037C100.267 51.8566 100.027 51.7183 99.7143 51.6281C99.4016 51.5379 99.0228 51.4898 98.5839 51.4898H94.1527V55.921H98.5178C99.107 55.921 99.576 55.8429 99.9187 55.6805C100.267 55.5182 100.514 55.2597 100.658 54.9169C100.797 54.5802 100.869 54.1413 100.869 53.6002Z" fill="#AB2421"/>
<path d="M88.6499 56.5578C88.6499 57.7483 88.5056 58.7945 88.211 59.7084C87.9164 60.6223 87.4775 61.3919 86.8882 62.0112C86.2689 62.6665 85.4993 63.1535 84.5975 63.4842C83.6896 63.8089 82.6374 63.9772 81.4409 63.9772C79.7274 63.9712 78.3084 63.6826 77.1721 63.0994C76.0357 62.5222 75.1879 61.6684 74.6228 60.5441C74.0576 59.4198 73.775 58.0489 73.775 56.4256C73.769 54.6759 74.0335 53.2329 74.5566 52.0846C75.0797 50.9422 75.8974 50.0884 76.9917 49.5292C78.092 48.9701 79.4989 48.6875 81.2124 48.6875C82.926 48.6875 84.3329 48.9761 85.4332 49.5473C86.5275 50.1185 87.3452 50.9903 87.8683 52.1567C88.3974 53.3231 88.6559 54.7902 88.6499 56.5578ZM85.1266 56.3594C85.1266 55.187 84.9883 54.219 84.7177 53.4614C84.4411 52.7098 84.0143 52.1507 83.4431 51.7899C82.8659 51.4232 82.1323 51.2428 81.2365 51.2488C80.5691 51.2488 79.9919 51.345 79.4929 51.5374C78.9999 51.7238 78.597 52.0064 78.2964 52.3792C77.9657 52.788 77.7192 53.3171 77.5508 53.9725C77.3825 54.6278 77.2983 55.4095 77.2983 56.3113C77.2983 57.4838 77.4306 58.4518 77.7192 59.2093C77.9958 59.9669 78.4287 60.5321 79.0059 60.8988C79.5891 61.2656 80.3286 61.452 81.2365 61.446C82.1323 61.452 82.8659 61.2716 83.4431 60.9049C84.0143 60.5441 84.4411 59.985 84.7177 59.2334C84.9883 58.4818 85.1266 57.5198 85.1266 56.3594Z" fill="#AB2421"/>
<path d="M71.5084 63.8876H68.2977V51.4958H62.4836V63.8876H59.2729V48.8022H71.5084V63.8876Z" fill="#AB2421"/>
<path d="M56.203 63.8876H53.1487V52.56L49.1925 63.8876H45.8856L42.1579 52.56V63.8876H39.1035V48.8022H43.8053L47.5631 60.5867L51.5193 48.8022H56.203V63.8876Z" fill="#AB2421"/>
<path d="M36.05 63.8876H32.9957V52.8306L26.8208 63.8876H22.8887V48.8022H25.943V60.0456L31.9555 48.8022H36.05V63.8876Z" fill="#AB2421"/>
<path fill-rule="evenodd" clip-rule="evenodd" d="M10.4918 47.4977C10.9187 44.7681 11.5981 42.1226 12.512 39.5853C12.9569 39.6755 13.4199 39.7176 13.8888 39.7176C17.809 39.7176 20.9896 36.537 20.9896 32.6169C20.9896 30.7169 20.244 28.9973 19.0355 27.7227C20.719 25.5582 22.6009 23.5561 24.6572 21.7463C25.9018 22.8225 27.5251 23.4779 29.3048 23.4779C33.225 23.4779 36.4056 20.2973 36.4056 16.3771C36.4056 15.7158 36.3154 15.0785 36.147 14.4712C38.6783 13.3829 41.3418 12.5292 44.0955 11.9339C45.0696 14.6997 47.703 16.6778 50.7995 16.6778C54.1664 16.6778 56.9863 14.3389 57.7138 11.1944C75.0658 12.9801 89.3755 25.0231 94.4801 41.1606H86.8503C81.6194 27.7047 68.5423 18.1629 53.2345 18.1629C33.3212 18.1629 17.1777 34.3064 17.1777 54.2197C17.1777 74.133 36.3515 90.2766 53.2345 90.2766C70.1176 90.2766 80.2005 82.4603 86.243 71.0005H94.2036C88.2752 85.0697 74.0377 95.3451 58.309 97.1789C57.5455 94.0764 54.7497 91.7737 51.4127 91.7737C48.2802 91.7737 45.6167 93.8059 44.6727 96.6257C41.8649 96.0606 39.1533 95.2248 36.5679 94.1426C36.7122 93.5774 36.7904 92.9882 36.7904 92.3749C36.7904 88.4548 33.6098 85.2742 29.6896 85.2742C27.9099 85.2742 26.2806 85.9295 25.036 87.0118C22.9376 85.202 21.0136 83.1999 19.288 81.0233C20.5146 79.7487 21.2722 78.0111 21.2722 76.0991C21.2722 72.179 18.0916 68.9984 14.1714 68.9984C13.6423 68.9984 13.1313 69.0585 12.6322 69.1667C11.6702 66.5633 10.9608 63.8457 10.5158 61.0318C13.3838 60.1179 15.4581 57.4364 15.4581 54.2678C15.4521 51.0992 13.3657 48.4116 10.4918 47.4977ZM0 54.2197C0 24.8247 23.8335 0.991211 53.2285 0.991211C78.1202 0.991211 99.0196 18.0787 104.84 41.1606H97.793C92.5561 23.2614 76.8335 9.8476 57.7198 8.00778C57.0043 4.8392 54.1725 2.47629 50.7934 2.47629C47.1439 2.47629 44.1436 5.224 43.7408 8.76535C40.5722 9.42672 37.5179 10.4068 34.6199 11.6754C33.3212 10.2023 31.4152 9.27641 29.2988 9.27641C25.3787 9.27641 22.1981 12.457 22.1981 16.3771C22.1981 17.3692 22.4025 18.3192 22.7693 19.173C20.4184 21.2172 18.2779 23.4959 16.378 25.9671C15.6024 25.6785 14.7606 25.5161 13.8828 25.5161C9.96268 25.5161 6.78208 28.6967 6.78208 32.6169C6.78208 34.9317 7.88838 36.9819 9.60193 38.2806C8.55576 41.1426 7.78015 44.1428 7.31719 47.2392C3.88406 47.7443 1.24458 50.6964 1.24458 54.2738C1.24458 57.8512 3.89008 60.8154 7.33523 61.3024C7.82224 64.501 8.64595 67.5915 9.75224 70.5436C8.11685 71.8423 7.06467 73.8505 7.06467 76.1051C7.06467 80.0253 10.2453 83.2059 14.1654 83.2059C15.0252 83.2059 15.8549 83.0496 16.6185 82.773C18.5605 85.2621 20.7551 87.5409 23.1541 89.5911C22.7873 90.4509 22.5829 91.3949 22.5829 92.3869C22.5829 96.3071 25.7635 99.4877 29.6836 99.4877C31.8541 99.4877 33.7962 98.5136 35.1009 96.9805C38.047 98.2311 41.1434 99.181 44.3661 99.8063C44.817 103.294 47.7992 105.987 51.4067 105.987C54.8158 105.987 57.6657 103.582 58.3511 100.372C75.8354 98.4535 91.4859 86.8314 97.6187 71.0065H104.846C97.8171 92.1825 79.6954 107.454 53.2345 107.454C26.7736 107.454 0 83.6207 0 54.2197Z" fill="url(#paint0_radial_1732_3405)"/>
<mask id="mask0_1732_3405" style="mask-type:alpha" maskUnits="userSpaceOnUse" x="45" y="3" width="12" height="13">
<path fill-rule="evenodd" clip-rule="evenodd" d="M53.9028 14.5132C51.3509 16.1537 47.9876 15.5128 46.2118 13.102C46.1413 13.0079 46.0707 12.908 46.006 12.8021C45.471 11.973 45.177 11.0558 45.1123 10.1326C44.9653 8.11583 45.8943 6.08138 47.7112 4.91128C47.7818 4.87012 47.8464 4.82896 47.917 4.7878C49.7045 3.73529 51.8507 3.76469 53.5617 4.70548C54.3673 5.14647 55.0729 5.78738 55.6079 6.61645C57.319 9.26829 56.5546 12.8021 53.9028 14.5132Z" fill="#C4C4C4"/>
</mask>
<g mask="url(#mask0_1732_3405)">
<path d="M57.0981 3.99902H45.0972V15.9999H57.0981V3.99902Z" fill="url(#paint1_radial_1732_3405)"/>
</g>
<mask id="mask1_1732_3405" style="mask-type:alpha" maskUnits="userSpaceOnUse" x="23" y="10" width="12" height="13">
<path fill-rule="evenodd" clip-rule="evenodd" d="M32.2538 21.1265C29.702 22.767 26.3386 22.1261 24.5629 19.7153C24.4924 19.6212 24.4218 19.5213 24.3571 19.4154C23.822 18.5863 23.528 17.6691 23.4634 16.7459C23.3164 14.7291 24.2454 12.6947 26.0623 11.5246C26.1328 11.4834 26.1975 11.4422 26.2681 11.4011C28.0556 10.3486 30.2018 10.378 31.9128 11.3188C32.7184 11.7598 33.424 12.4007 33.959 13.2297C35.6701 15.8816 34.9057 19.4154 32.2538 21.1265Z" fill="#C4C4C4"/>
</mask>
<g mask="url(#mask1_1732_3405)">
<path d="M35.4492 10.6123H23.4482V22.6132H35.4492V10.6123Z" fill="url(#paint2_radial_1732_3405)"/>
</g>
<mask id="mask2_1732_3405" style="mask-type:alpha" maskUnits="userSpaceOnUse" x="7" y="26" width="13" height="13">
<path fill-rule="evenodd" clip-rule="evenodd" d="M17.085 37.9118C14.3988 39.6386 10.8584 38.964 8.98925 36.4263C8.91498 36.3273 8.84071 36.2221 8.77262 36.1107C8.20939 35.238 7.89992 34.2724 7.83184 33.3007C7.6771 31.1777 8.65502 29.0362 10.5675 27.8045C10.6418 27.7612 10.7099 27.7179 10.7842 27.6745C12.6658 26.5666 14.9249 26.5976 16.726 27.5879C17.5739 28.0521 18.3167 28.7267 18.8799 29.5994C20.681 32.3908 19.8764 36.1107 17.085 37.9118Z" fill="#C4C4C4"/>
</mask>
<g mask="url(#mask2_1732_3405)">
<path d="M20.4485 26.8442H7.81592V39.4768H20.4485V26.8442Z" fill="url(#paint3_radial_1732_3405)"/>
</g>
<mask id="mask3_1732_3405" style="mask-type:alpha" maskUnits="userSpaceOnUse" x="2" y="48" width="13" height="13">
<path fill-rule="evenodd" clip-rule="evenodd" d="M11.6695 59.5573C8.98344 61.284 5.44327 60.6094 3.57416 58.0719C3.49989 57.9729 3.42562 57.8676 3.35754 57.7562C2.79433 56.8836 2.48488 55.9181 2.4168 54.9464C2.26207 52.8235 3.23995 50.6821 5.15238 49.4505C5.22665 49.4071 5.29473 49.3638 5.369 49.3205C7.25049 48.2126 9.50952 48.2436 11.3105 49.2338C12.1585 49.698 12.9011 50.3726 13.4644 51.2453C15.2654 54.0366 14.4608 57.7562 11.6695 59.5573Z" fill="#C4C4C4"/>
</mask>
<g mask="url(#mask3_1732_3405)">
<path d="M15.0329 48.4902H2.40088V61.1222H15.0329V48.4902Z" fill="url(#paint4_radial_1732_3405)"/>
</g>
<mask id="mask4_1732_3405" style="mask-type:alpha" maskUnits="userSpaceOnUse" x="8" y="70" width="12" height="12">
<path fill-rule="evenodd" clip-rule="evenodd" d="M17.227 80.6514C14.6751 82.2919 11.3118 81.651 9.53605 79.2402C9.46549 79.1461 9.39494 79.0462 9.33026 78.9403C8.79518 78.1112 8.50119 77.194 8.43651 76.2708C8.28951 74.254 9.21854 72.2196 11.0354 71.0495C11.106 71.0083 11.1707 70.9671 11.2412 70.926C13.0287 69.8735 15.1749 69.9029 16.886 70.8437C17.6915 71.2847 18.3971 71.9256 18.9322 72.7546C20.6432 75.4065 19.8788 78.9403 17.227 80.6514Z" fill="#C4C4C4"/>
</mask>
<g mask="url(#mask4_1732_3405)">
<path d="M20.4223 70.1372H8.42139V82.1381H20.4223V70.1372Z" fill="url(#paint5_radial_1732_3405)"/>
</g>
<mask id="mask5_1732_3405" style="mask-type:alpha" maskUnits="userSpaceOnUse" x="45" y="92" width="13" height="13">
<path fill-rule="evenodd" clip-rule="evenodd" d="M54.4975 103.496C51.9456 105.137 48.5823 104.496 46.8066 102.085C46.736 101.991 46.6654 101.891 46.6008 101.785C46.0657 100.956 45.7717 100.039 45.707 99.1156C45.56 97.0987 46.489 95.0643 48.3059 93.8942C48.3765 93.853 48.4412 93.8119 48.5117 93.7707C50.2992 92.7182 52.4454 92.7476 54.1565 93.6884C54.962 94.1294 55.6676 94.7703 56.2027 95.5994C57.9137 98.2512 57.1493 101.785 54.4975 103.496Z" fill="#C4C4C4"/>
</mask>
<g mask="url(#mask5_1732_3405)">
<path d="M57.6928 92.9819H45.6919V104.983H57.6928V92.9819Z" fill="url(#paint6_radial_1732_3405)"/>
</g>
<mask id="mask6_1732_3405" style="mask-type:alpha" maskUnits="userSpaceOnUse" x="24" y="86" width="12" height="13">
<path fill-rule="evenodd" clip-rule="evenodd" d="M32.8544 97.4839C30.3025 99.1244 26.9392 98.4835 25.1635 96.0727C25.0929 95.9786 25.0224 95.8787 24.9577 95.7728C24.4226 94.9438 24.1286 94.0265 24.0639 93.1034C23.917 91.0865 24.846 89.0521 26.6629 87.882C26.7334 87.8408 26.7981 87.7997 26.8687 87.7585C28.6562 86.706 30.8023 86.7354 32.5134 87.6762C33.3189 88.1172 34.0245 88.7581 34.5596 89.5872C36.2707 92.239 35.5063 95.7728 32.8544 97.4839Z" fill="#C4C4C4"/>
</mask>
<g mask="url(#mask6_1732_3405)">
<path d="M36.0498 86.9697H24.0488V98.9706H36.0498V86.9697Z" fill="url(#paint7_radial_1732_3405)"/>
</g>
<defs>
<radialGradient id="paint0_radial_1732_3405" cx="0" cy="0" r="1" gradientUnits="userSpaceOnUse" gradientTransform="translate(80.4331 4.06389) scale(109.046 109.046)">
<stop offset="0.09" stop-color="#E8E4E6"/>
<stop offset="1" stop-color="#050607"/>
</radialGradient>
<radialGradient id="paint1_radial_1732_3405" cx="0" cy="0" r="1" gradientUnits="userSpaceOnUse" gradientTransform="translate(49.1699 8.2823) scale(8.88878 8.88878)">
<stop stop-color="white"/>
<stop offset="0.2081" stop-color="white"/>
<stop offset="0.243" stop-color="white"/>
<stop offset="0.3519" stop-color="#C3C1C2"/>
<stop offset="0.5116" stop-color="#717172"/>
<stop offset="0.5687" stop-color="#737374"/>
<stop offset="0.6204" stop-color="#7B7B7C"/>
<stop offset="0.67" stop-color="#888888"/>
<stop offset="0.7181" stop-color="#9A9A99"/>
<stop offset="0.7406" stop-color="#A5A5A4"/>
<stop offset="0.7655" stop-color="#929292"/>
<stop offset="0.8178" stop-color="#717272"/>
<stop offset="0.8687" stop-color="#5A5A5C"/>
<stop offset="0.9171" stop-color="#4A4B4D"/>
<stop offset="0.962" stop-color="#414244"/>
<stop offset="1" stop-color="#3E3F41"/>
</radialGradient>
<radialGradient id="paint2_radial_1732_3405" cx="0" cy="0" r="1" gradientUnits="userSpaceOnUse" gradientTransform="translate(27.521 14.8956) scale(8.8888 8.8888)">
<stop stop-color="white"/>
<stop offset="0.2081" stop-color="white"/>
<stop offset="0.243" stop-color="white"/>
<stop offset="0.3519" stop-color="#C3C1C2"/>
<stop offset="0.5116" stop-color="#717172"/>
<stop offset="0.5687" stop-color="#737374"/>
<stop offset="0.6204" stop-color="#7B7B7C"/>
<stop offset="0.67" stop-color="#888888"/>
<stop offset="0.7181" stop-color="#9A9A99"/>
<stop offset="0.7406" stop-color="#A5A5A4"/>
<stop offset="0.7655" stop-color="#929292"/>
<stop offset="0.8178" stop-color="#717272"/>
<stop offset="0.8687" stop-color="#5A5A5C"/>
<stop offset="0.9171" stop-color="#4A4B4D"/>
<stop offset="0.962" stop-color="#414244"/>
<stop offset="1" stop-color="#3E3F41"/>
</radialGradient>
<radialGradient id="paint3_radial_1732_3405" cx="0" cy="0" r="1" gradientUnits="userSpaceOnUse" gradientTransform="translate(12.1031 31.353) scale(9.35663 9.35663)">
<stop stop-color="white"/>
<stop offset="0.2081" stop-color="white"/>
<stop offset="0.243" stop-color="white"/>
<stop offset="0.3519" stop-color="#C3C1C2"/>
<stop offset="0.5116" stop-color="#717172"/>
<stop offset="0.5687" stop-color="#737374"/>
<stop offset="0.6204" stop-color="#7B7B7C"/>
<stop offset="0.67" stop-color="#888888"/>
<stop offset="0.7181" stop-color="#9A9A99"/>
<stop offset="0.7406" stop-color="#A5A5A4"/>
<stop offset="0.7655" stop-color="#929292"/>
<stop offset="0.8178" stop-color="#717272"/>
<stop offset="0.8687" stop-color="#5A5A5C"/>
<stop offset="0.9171" stop-color="#4A4B4D"/>
<stop offset="0.962" stop-color="#414244"/>
<stop offset="1" stop-color="#3E3F41"/>
</radialGradient>
<radialGradient id="paint4_radial_1732_3405" cx="0" cy="0" r="1" gradientUnits="userSpaceOnUse" gradientTransform="translate(6.68783 52.9988) scale(9.3562)">
<stop stop-color="white"/>
<stop offset="0.2081" stop-color="white"/>
<stop offset="0.243" stop-color="white"/>
<stop offset="0.3519" stop-color="#C3C1C2"/>
<stop offset="0.5116" stop-color="#717172"/>
<stop offset="0.5687" stop-color="#737374"/>
<stop offset="0.6204" stop-color="#7B7B7C"/>
<stop offset="0.67" stop-color="#888888"/>
<stop offset="0.7181" stop-color="#9A9A99"/>
<stop offset="0.7406" stop-color="#A5A5A4"/>
<stop offset="0.7655" stop-color="#929292"/>
<stop offset="0.8178" stop-color="#717272"/>
<stop offset="0.8687" stop-color="#5A5A5C"/>
<stop offset="0.9171" stop-color="#4A4B4D"/>
<stop offset="0.962" stop-color="#414244"/>
<stop offset="1" stop-color="#3E3F41"/>
</radialGradient>
<radialGradient id="paint5_radial_1732_3405" cx="0" cy="0" r="1" gradientUnits="userSpaceOnUse" gradientTransform="translate(12.4942 74.4205) scale(8.8888 8.8888)">
<stop stop-color="white"/>
<stop offset="0.2081" stop-color="white"/>
<stop offset="0.243" stop-color="white"/>
<stop offset="0.3519" stop-color="#C3C1C2"/>
<stop offset="0.5116" stop-color="#717172"/>
<stop offset="0.5687" stop-color="#737374"/>
<stop offset="0.6204" stop-color="#7B7B7C"/>
<stop offset="0.67" stop-color="#888888"/>
<stop offset="0.7181" stop-color="#9A9A99"/>
<stop offset="0.7406" stop-color="#A5A5A4"/>
<stop offset="0.7655" stop-color="#929292"/>
<stop offset="0.8178" stop-color="#717272"/>
<stop offset="0.8687" stop-color="#5A5A5C"/>
<stop offset="0.9171" stop-color="#4A4B4D"/>
<stop offset="0.962" stop-color="#414244"/>
<stop offset="1" stop-color="#3E3F41"/>
</radialGradient>
<radialGradient id="paint6_radial_1732_3405" cx="0" cy="0" r="1" gradientUnits="userSpaceOnUse" gradientTransform="translate(49.7647 97.2652) scale(8.8888 8.8888)">
<stop stop-color="white"/>
<stop offset="0.2081" stop-color="white"/>
<stop offset="0.243" stop-color="white"/>
<stop offset="0.3519" stop-color="#C3C1C2"/>
<stop offset="0.5116" stop-color="#717172"/>
<stop offset="0.5687" stop-color="#737374"/>
<stop offset="0.6204" stop-color="#7B7B7C"/>
<stop offset="0.67" stop-color="#888888"/>
<stop offset="0.7181" stop-color="#9A9A99"/>
<stop offset="0.7406" stop-color="#A5A5A4"/>
<stop offset="0.7655" stop-color="#929292"/>
<stop offset="0.8178" stop-color="#717272"/>
<stop offset="0.8687" stop-color="#5A5A5C"/>
<stop offset="0.9171" stop-color="#4A4B4D"/>
<stop offset="0.962" stop-color="#414244"/>
<stop offset="1" stop-color="#3E3F41"/>
</radialGradient>
<radialGradient id="paint7_radial_1732_3405" cx="0" cy="0" r="1" gradientUnits="userSpaceOnUse" gradientTransform="translate(28.1216 91.253) scale(8.8888 8.8888)">
<stop stop-color="white"/>
<stop offset="0.2081" stop-color="white"/>
<stop offset="0.243" stop-color="white"/>
<stop offset="0.3519" stop-color="#C3C1C2"/>
<stop offset="0.5116" stop-color="#717172"/>
<stop offset="0.5687" stop-color="#737374"/>
<stop offset="0.6204" stop-color="#7B7B7C"/>
<stop offset="0.67" stop-color="#888888"/>
<stop offset="0.7181" stop-color="#9A9A99"/>
<stop offset="0.7406" stop-color="#A5A5A4"/>
<stop offset="0.7655" stop-color="#929292"/>
<stop offset="0.8178" stop-color="#717272"/>
<stop offset="0.8687" stop-color="#5A5A5C"/>
<stop offset="0.9171" stop-color="#4A4B4D"/>
<stop offset="0.962" stop-color="#414244"/>
<stop offset="1" stop-color="#3E3F41"/>
</radialGradient>
</defs>
</svg>
