<svg width="165" height="165" viewBox="0 0 165 165" fill="none" xmlns="http://www.w3.org/2000/svg">
  <path d="M114.048 78.7675C116.741 80.5275 116.741 84.4731 114.048 86.2332L72.8982 113.129C69.9322 115.068 65.999 112.939 65.999 109.396L65.999 55.6046C65.999 52.0612 69.9322 49.9331 72.8983 51.8718L114.048 78.7675Z" fill="#AB2421"/>
  <path fill-rule="evenodd" clip-rule="evenodd" d="M82.5 165C128.064 165 165 128.063 165 82.5C165 36.9365 128.064 0 82.5 0C36.9365 0 0 36.9365 0 82.5C0 128.063 36.9365 165 82.5 165ZM82.5 153.723C43.1646 153.723 11.277 121.835 11.277 82.5C11.277 43.1646 43.1646 11.277 82.5 11.277C121.835 11.277 153.723 43.1646 153.723 82.5C153.723 121.835 121.835 153.723 82.5 153.723ZM158.098 107.133C160.612 99.3912 161.971 91.1287 161.971 82.5489C161.971 80.8524 161.918 79.1682 161.813 77.4981C163.047 76.6063 163.849 75.1554 163.849 73.5171C163.849 71.4709 162.597 69.7171 160.818 68.9796C158.991 58.3534 155.055 48.4481 149.457 39.7101C149.727 39.1019 149.877 38.4285 149.877 37.7201C149.877 35.0086 147.679 32.8105 144.967 32.8105C144.815 32.8105 144.664 32.8175 144.515 32.8311C138.336 25.1272 130.751 18.5985 122.15 13.6336C122.026 11.033 119.878 8.96286 117.247 8.96286C116.248 8.96286 115.32 9.26081 114.545 9.77262C104.73 5.43834 93.8726 3.03136 82.4536 3.03136C80.7652 3.03136 79.089 3.08399 77.4267 3.18768C76.5294 2.01772 75.1171 1.26341 73.5287 1.26341C71.5361 1.26341 69.8207 2.45048 69.0512 4.15602C56.0953 6.35509 44.2062 11.6879 34.1911 19.3474C33.7007 19.183 33.1757 19.094 32.6299 19.094C29.9184 19.094 27.7203 21.2921 27.7203 24.0036C27.7203 24.2763 27.7425 24.5437 27.7853 24.8043C20.6229 31.5873 14.7218 39.6886 10.4701 48.7198C8.06728 49.0391 6.21343 51.0962 6.21343 53.5864C6.21343 54.7301 6.60454 55.7826 7.26032 56.6172C4.45786 64.7449 2.93606 73.4692 2.93606 82.5489C2.93606 84.1459 2.98314 85.7319 3.07599 87.3056C1.83206 88.1963 1.02146 89.6536 1.02146 91.3002C1.02146 93.3418 2.26757 95.0923 4.04069 95.8327C5.76165 106.066 9.43721 115.636 14.6702 124.145C14.4466 124.707 14.3237 125.319 14.3237 125.96C14.3237 128.672 16.5218 130.87 19.2333 130.87C19.2545 130.87 19.2756 130.87 19.2968 130.87C25.2978 138.701 32.7227 145.385 41.1846 150.532C41.3452 153.099 43.4776 155.131 46.0845 155.131C46.9716 155.131 47.8037 154.895 48.5219 154.484C58.8132 159.347 70.3158 162.066 82.4536 162.066C84.0948 162.066 85.7244 162.017 87.341 161.919C88.3603 163.223 90.0151 163.981 91.7799 163.776C93.5351 163.572 94.966 162.465 95.6632 160.974C108.814 158.775 120.871 153.349 130.994 145.537C131.412 145.653 131.852 145.715 132.307 145.715C135.018 145.715 137.216 143.516 137.216 140.805C137.216 140.612 137.205 140.422 137.183 140.235C144.649 133.15 150.74 124.631 155.016 115.12C157.394 114.779 159.223 112.733 159.223 110.26C159.223 109.072 158.801 107.982 158.098 107.133ZM146.074 42.5044C151.138 50.5328 154.725 59.5865 156.451 69.2838C155.002 70.1373 154.03 71.7136 154.03 73.5171C154.03 75.7258 155.488 77.5939 157.495 78.2107C157.577 79.6464 157.618 81.0928 157.618 82.5489C157.618 90.4997 156.384 98.1622 154.096 105.355C151.485 105.469 149.403 107.621 149.403 110.26C149.403 111.624 149.96 112.858 150.857 113.748C146.934 122.336 141.441 130.056 134.745 136.543C134.026 136.131 133.194 135.895 132.307 135.895C129.595 135.895 127.397 138.093 127.397 140.805C127.397 141.423 127.511 142.015 127.72 142.56C118.436 149.574 107.473 154.483 95.5408 156.578C94.6163 154.855 92.7061 153.783 90.6461 154.022C88.5951 154.261 86.9871 155.731 86.4749 157.608C85.1433 157.678 83.8026 157.713 82.4536 157.713C71.2074 157.713 60.538 155.243 50.9584 150.816C50.982 150.621 50.9941 150.423 50.9941 150.221C50.9941 147.51 48.796 145.311 46.0845 145.311C44.8718 145.311 43.7617 145.751 42.9051 146.48C35.3462 141.794 28.68 135.805 23.2202 128.826C23.8008 128.02 24.1429 127.03 24.1429 125.96C24.1429 123.249 21.9448 121.051 19.2333 121.051C18.8009 121.051 18.3815 121.107 17.982 121.212C13.3204 113.455 10.019 104.788 8.40774 95.5403C9.86317 94.6883 10.8407 93.1084 10.8407 91.3002C10.8407 89.0993 9.39256 87.2367 7.39716 86.6132C7.32545 85.2675 7.28914 83.9124 7.28914 82.5489C7.28914 74.1366 8.67108 66.0471 11.2203 58.4951C13.8869 58.4432 16.0327 56.2654 16.0327 53.5864C16.0327 52.242 15.4923 51.0239 14.617 50.1372C18.5363 41.949 23.8945 34.5809 30.3642 28.3603C31.042 28.7135 31.8127 28.9132 32.6299 28.9132C35.3414 28.9132 37.5396 26.7151 37.5396 24.0036C37.5396 23.4641 37.4525 22.9449 37.2918 22.4593C46.5177 15.5143 57.3946 10.6447 69.2286 8.54413C70.0649 10.0577 71.6771 11.0826 73.5287 11.0826C75.7805 11.0826 77.6783 9.56666 78.257 7.49962C79.6461 7.42317 81.0454 7.38444 82.4536 7.38444C93.0767 7.38444 103.185 9.5882 112.346 13.5635C112.34 13.6657 112.337 13.7687 112.337 13.8725C112.337 16.584 114.535 18.7821 117.247 18.7821C118.442 18.7821 119.537 18.3551 120.388 17.6453C128.197 22.2191 135.106 28.1617 140.787 35.1438C140.325 35.8927 140.058 36.7753 140.058 37.7201C140.058 40.4317 142.256 42.6298 144.967 42.6298C145.348 42.6298 145.719 42.5864 146.074 42.5044Z" fill="#AB2421"/>
</svg>
