<svg width="52" height="37" viewBox="0 0 52 37" fill="none" xmlns="http://www.w3.org/2000/svg">
<path d="M50.849 5.78871C50.2588 3.52097 48.4881 1.73065 46.2452 1.10403C42.202 -7.1141e-08 25.941 0 25.941 0C25.941 0 9.70942 -7.1141e-08 5.63678 1.10403C3.39387 1.70081 1.65267 3.49113 1.03292 5.78871C0 9.90645 0 18.5 0 18.5C0 18.5 -7.03619e-08 27.0935 1.09194 31.2113C1.68218 33.479 3.45289 35.2694 5.6958 35.896C9.73893 37 26 37 26 37C26 37 42.2316 37 46.3042 35.896C48.5471 35.2992 50.2883 33.5089 50.9081 31.2113C52 27.0935 52 18.5 52 18.5C52 18.5 51.941 9.90645 50.849 5.78871ZM20.6583 26.3177V10.6823L34.2338 18.5L20.6583 26.3177Z" fill="black"/>
</svg>
