<svg width="119" height="135" viewBox="0 0 119 135" fill="none" xmlns="http://www.w3.org/2000/svg">
<g opacity="0.8">
<line x1="18.5" y1="131.5" x2="67.5" y2="131.5" stroke="#1F1111" stroke-linecap="round" stroke-dasharray="2 2"/>
<line x1="18.5" y1="131.5" x2="99.5" y2="131.5" stroke="#1F1111" stroke-linecap="round" stroke-dasharray="2 2"/>
<line x1="24.5" y1="134.5" x2="95.5" y2="134.5" stroke="#1F1111" stroke-linecap="round" stroke-dasharray="2 2"/>
<path d="M57.526 77.0688L59.3905 50.5938L61.6278 47.9836V80.4248H56.7803V78.1874C56.7803 77.2925 57.2775 77.0688 57.526 77.0688Z" stroke="#1F1111" stroke-linecap="round" stroke-linejoin="round"/>
<path d="M58.6445 80.4248L59.3903 50.9668" stroke="#1F1111" stroke-linecap="round" stroke-linejoin="round"/>
<path d="M61.6277 25.2375V33.0682L59.3904 32.6953H58.2717C58.1474 31.5766 57.8988 29.041 57.8988 27.8478C57.8988 26.6545 57.4017 25.6104 57.1531 25.2375H61.6277Z" stroke="#1F1111" stroke-linecap="round" stroke-linejoin="round"/>
<path d="M57.153 25.2375C56.5563 24.9391 56.6558 26.6047 56.7801 27.4748L57.5259 35.3054L58.2717 35.6783V30.085C58.2717 28.5934 57.8987 25.6103 57.153 25.2375Z" stroke="#1F1111" stroke-linecap="round" stroke-linejoin="round"/>
<path d="M60.1362 1.74577L64.5043 1H68.4463L72.8144 1.74577" stroke="#1F1111" stroke-linecap="round" stroke-linejoin="round"/>
<path d="M63.865 10.3221V3.61019L64.9836 3.2373H68.7125L69.8312 3.61019V10.3221" stroke="#1F1111" stroke-linecap="round" stroke-linejoin="round"/>
<path d="M72.8144 9.94935V1.74585L69.8313 3.30842M60.1362 9.94935V1.74585L63.408 3.30842" stroke="#1F1111" stroke-linecap="round" stroke-linejoin="round"/>
<path d="M108.984 113.612H106.001L104.137 116.968" stroke="#1F1111" stroke-linecap="round" stroke-linejoin="round"/>
<path d="M92.9502 51.7125L82.1365 39.4072" stroke="#1F1111" stroke-linecap="round" stroke-linejoin="round"/>
<path d="M109.357 39.7798L110.849 37.9154C110.103 36.5482 108.705 34.5972 106.747 33.8139C103.95 32.6953 101.526 32.6951 99.2892 33.8138C96.3061 35.3053 95.0631 38.2885 94.4417 39.0343" stroke="#1F1111" stroke-linecap="round" stroke-linejoin="round"/>
<line x1="113.468" y1="83.1744" x2="113.971" y2="81.1615" stroke="#1F1111" stroke-linecap="round" stroke-linejoin="round"/>
<path d="M66.4753 24.8648C69.9763 24.8648 72.8144 23.4512 72.8144 22.6274V9.57642C71.9443 9.9493 70.2042 11.068 67.2211 11.068C63.8651 11.068 61.5035 10.1979 60.1362 9.9493V22.6274C60.1362 23.4512 62.9743 24.8648 66.4753 24.8648Z" stroke="#1F1111" stroke-linecap="round" stroke-linejoin="round"/>
<ellipse cx="66.4753" cy="15.9156" rx="2.6102" ry="2.98309" transform="rotate(15.8192 66.4753 15.9156)" stroke="#1F1111" stroke-linecap="round" stroke-linejoin="round"/>
<path d="M66.8482 12.9326C66.8482 15.4039 65.8465 17.4073 64.6108 17.4073" stroke="#1F1111" stroke-linecap="round" stroke-linejoin="round"/>
<line x1="57.7594" y1="77.4327" x2="58.2627" y2="79.4456" stroke="#1F1111" stroke-linecap="round" stroke-linejoin="round"/>
<path d="M30.3052 120.122C38.0281 126.998 51.013 131.51 65.7294 131.51C84.7043 131.51 101.899 124.052 106.374 112.866C106.374 109.51 106.296 102.885 106.374 100.188" stroke="#1F1111" stroke-linecap="round" stroke-linejoin="round"/>
<path d="M29.5596 108.258C36.2842 114.535 49.9663 118.832 65.7511 118.832C88.1866 118.832 106.374 110.151 106.374 99.4423C106.374 89.5742 90.9303 81.4278 70.95 80.2095M37.6842 85.4244C44.0453 82.5218 52.3787 80.5959 61.6278 80.1509" stroke="#1F1111" stroke-linecap="round" stroke-linejoin="round"/>
<path d="M37.39 87.5097L40.0361 85.7566C45.79 83.129 53.2936 81.3684 61.6276 80.9141M30.3052 103.917L32.5425 106.834C38.7449 112.628 51.3642 116.595 65.923 116.595C86.616 116.595 103.391 108.581 103.391 98.6963C103.391 89.6871 89.4572 82.2326 71.3227 80.9822" stroke="#1F1111" stroke-linecap="round" stroke-linejoin="round"/>
<path d="M101.154 93.1028C106.747 104.289 84.7711 114.357 68.3397 114.357C49.6953 114.357 35.8985 109.883 31.051 100.188" stroke="#1F1111" stroke-linecap="round" stroke-linejoin="round"/>
<path d="M100.408 91.9844C106.001 103.171 84.0252 113.239 67.5938 113.239C48.9495 113.239 36.2714 107.646 31.4238 97.9506" stroke="#1F1111" stroke-linecap="round" stroke-linejoin="round"/>
<path d="M71.3228 81.7541C85.3089 82.8959 95.9333 88.5443 95.9333 95.3404C95.9333 102.96 82.5776 109.137 66.1024 109.137C49.6272 109.137 36.2715 102.96 36.2715 95.3404C36.2715 88.424 47.2753 82.6963 61.6278 81.6978" stroke="#1F1111" stroke-linecap="round" stroke-linejoin="round"/>
<path d="M95.9333 96.459C95.9333 104.285 82.5776 110.629 66.1024 110.629C49.6272 110.629 36.2715 104.285 36.2715 96.459" stroke="#1F1111" stroke-linecap="round" stroke-linejoin="round"/>
<line x1="14.5" y1="128.5" x2="23.5" y2="128.5" stroke="#1F1111" stroke-linecap="round" stroke-dasharray="2 2"/>
<line x1="9.5" y1="125.5" x2="21.5" y2="125.5" stroke="#1F1111" stroke-linecap="round" stroke-dasharray="2 2"/>
<line x1="95.5" y1="125.5" x2="108.5" y2="125.5" stroke="#1F1111" stroke-linecap="round" stroke-dasharray="2 2"/>
<line x1="99.5" y1="122.5" x2="110.5" y2="122.5" stroke="#1F1111" stroke-linecap="round" stroke-dasharray="2 2"/>
<line x1="6.5" y1="122.5" x2="20.5" y2="122.5" stroke="#1F1111" stroke-linecap="round" stroke-dasharray="2 2"/>
<line x1="3.5" y1="119.5" x2="18.5" y2="119.5" stroke="#1F1111" stroke-linecap="round" stroke-dasharray="2 2"/>
<line x1="36.5" y1="128.5" x2="48.5" y2="128.5" stroke="#1F1111" stroke-linecap="round" stroke-dasharray="2 2"/>
<line x1="87.5" y1="128.5" x2="103.5" y2="128.5" stroke="#1F1111" stroke-linecap="round" stroke-dasharray="2 2"/>
<line x1="1.5" y1="116.5" x2="17.5" y2="116.5" stroke="#1F1111" stroke-linecap="round" stroke-dasharray="2 2"/>
<line x1="0.5" y1="113.5" x2="17.5" y2="113.5" stroke="#1F1111" stroke-linecap="round" stroke-dasharray="2 2"/>
<line x1="0.5" y1="110.5" x2="17.5" y2="110.5" stroke="#1F1111" stroke-linecap="round" stroke-dasharray="2 2"/>
<line x1="1.5" y1="107.5" x2="17.5" y2="107.5" stroke="#1F1111" stroke-linecap="round" stroke-dasharray="2 2"/>
<line x1="2.5" y1="104.5" x2="18.5" y2="104.5" stroke="#1F1111" stroke-linecap="round" stroke-dasharray="2 2"/>
<line x1="4.5" y1="101.5" x2="17.5" y2="101.5" stroke="#1F1111" stroke-linecap="round" stroke-dasharray="2 2"/>
<line x1="7.5" y1="98.5" x2="18.5" y2="98.5" stroke="#1F1111" stroke-linecap="round" stroke-dasharray="2 2"/>
<line x1="48.5" y1="101.5" x2="62.5" y2="101.5" stroke="#1F1111" stroke-linecap="round" stroke-dasharray="2 2"/>
<line x1="53.5" y1="104.5" x2="62.5" y2="104.5" stroke="#1F1111" stroke-linecap="round" stroke-dasharray="2 2"/>
<line x1="71.5" y1="104.5" x2="77.5" y2="104.5" stroke="#1F1111" stroke-linecap="round" stroke-dasharray="2 2"/>
<line x1="71.5" y1="101.5" x2="85.5" y2="101.5" stroke="#1F1111" stroke-linecap="round" stroke-dasharray="2 2"/>
<line x1="52.5" y1="98.5" x2="62.5" y2="98.5" stroke="#1F1111" stroke-linecap="round" stroke-dasharray="2 2"/>
<line x1="70.5" y1="98.5" x2="80.5" y2="98.5" stroke="#1F1111" stroke-linecap="round" stroke-dasharray="2 2"/>
<path d="M103.018 40.1533V44.628C102.769 44.7523 102.272 45.2992 102.272 46.4924C102.272 47.9839 103.064 58.4427 105.255 64.3909C107.866 71.4758 112.713 79.6793 114.205 80.7979C115.696 81.9166 118.306 90.8659 118.306 93.849C118.306 96.2354 118.306 103.171 117.188 108.392" stroke="#1F1111" stroke-linecap="round" stroke-linejoin="round"/>
<path d="M97.7977 76.6961L101.154 81.5436M103.018 84.1539C104.883 87.2612 108.761 94.2964 109.357 97.5778C109.954 100.859 110.103 104.414 110.103 105.781C110.103 109.982 109.357 113.612 107.866 116.968H104.137L103.018 119.205C103.888 120.2 106.076 122.188 107.866 122.188C110.103 122.188 110.476 122.561 112.34 120.324C114.205 118.087 116.815 109.883 117.188 107.646C117.561 105.408 118.306 100.561 117.188 94.9676C116.293 90.4929 114.578 85.3968 113.832 83.4081C112.589 82.2894 111.595 81.5436 110.103 79.3063C109.357 78.1877 106.766 73.5746 104.883 68.8655C102.645 63.2719 101.154 55.4416 101.154 49.8483C101.154 45.3737 101.527 41.7688 101.899 40.5258L109.357 39.7804C108.86 38.4131 106.3 35.231 103.018 34.9327C98.9164 34.5598 96.6791 35.6784 94.8146 38.6615C93.3231 41.048 93.1988 50.9669 92.9502 56.1873" stroke="#1F1111" stroke-linecap="round" stroke-linejoin="round"/>
<path d="M79.1534 40.5259L103.391 69.2381M73.5601 46.8649L94.0689 70.7297M40.0003 80.0518L37.3901 84.8994" stroke="#1F1111" stroke-linecap="round" stroke-linejoin="round"/>
<path d="M43.3562 60.289C43.3562 58.1759 43.2816 53.8753 42.9833 52.0855C42.685 50.2956 42.3619 49.8481 42.2376 49.8481H35.1527C35.1527 53.577 35.1527 57.6788 35.1527 59.1703C35.1527 62.8992 34.407 70.3569 32.1696 75.5773C30.3798 79.7536 26.5763 86.391 24.7119 90.4928C23.5932 93.103 21.7288 99.8149 21.3559 103.917C20.9508 108.373 21.6045 113.239 21.7288 115.103C21.7288 115.476 21.878 116.297 22.4746 116.595M22.4746 116.595C23.0712 116.893 27.695 115.476 29.9323 114.73M22.4746 116.595C22.7232 117.838 23.5187 121.144 24.7119 124.425C26.2035 128.527 28.0679 131.51 28.8137 131.883" stroke="#1F1111" stroke-linecap="round" stroke-linejoin="round"/>
<path d="M30.6781 43.8821L31.4239 47.6109C32.0453 48.2324 33.2137 50.3703 32.9154 53.95C32.5425 58.4246 30.6781 71.1028 29.5594 73.3401C28.6645 75.13 24.4633 84.5267 22.4746 89.0013C21.6045 91.2386 19.7152 96.9065 19.1186 101.679C18.522 106.452 18.87 111.872 19.1186 113.985L18 112.866C18.87 115.973 20.983 122.785 22.4746 125.171C24.1545 127.859 27.2887 132.824 31.051 131.883C33.4375 131.287 36.52 127.16 37.763 125.171C37.1415 124.923 35.5257 124.798 34.0341 125.171C32.4756 125.561 31.9211 125.917 31.7968 125.917C31.2996 124.177 30.2307 120.175 29.9324 118.086C29.6341 115.998 29.8081 114.979 29.9324 114.73C29.6838 114.482 29.1866 113.836 29.1866 113.239C29.1866 112.493 29.5595 102.425 31.7968 96.8319C33.5866 92.3573 34.5313 90.4929 34.7799 90.12" stroke="#1F1111" stroke-linecap="round" stroke-linejoin="round"/>
<path d="M35.5257 49.1023H43.3563C42.8591 45.2492 40.7461 37.4683 36.2715 37.1699C31.7968 36.8716 28.6894 41.5203 27.6951 43.8819H34.7799L35.5257 49.1023Z" stroke="#1F1111" stroke-linecap="round" stroke-linejoin="round"/>
<path d="M35.8985 37.1697L30.3052 36.051C29.0623 36.4239 27.695 36.4239 25.8306 38.2883C24.6006 39.5183 23.8419 41.3957 23.5933 41.6443L27.695 43.8816" stroke="#1F1111" stroke-linecap="round" stroke-linejoin="round"/>
<path d="M27.3223 70.7295L31.0511 67.3735L30.3054 69.6109C30.0568 69.6109 29.4104 69.9837 28.8138 71.4753C28.2172 72.9668 28.5652 75.0799 28.8138 75.9499L28.068 77.0686L27.3223 76.6957V70.7295Z" stroke="#1F1111" stroke-linecap="round" stroke-linejoin="round"/>
<path d="M50.4411 40.5259L42.9834 51.3396" stroke="#1F1111" stroke-linecap="round" stroke-linejoin="round"/>
<path d="M55.6615 42.3901L34.407 72.9668M61.2548 47.6105L43.3563 74.4584" stroke="#1F1111" stroke-linecap="round" stroke-linejoin="round"/>
<path d="M57.153 36.0513L54.5428 34.9326L51.9326 37.5428" stroke="#1F1111" stroke-linecap="round" stroke-linejoin="round"/>
<path d="M49.3225 41.6444V37.9155L53.0514 34.5596L54.5429 34.9325" stroke="#1F1111" stroke-linecap="round" stroke-linejoin="round"/>
<path d="M58.6446 38.6617C58.396 38.6617 57.0039 38.7363 56.4073 39.0346C55.8106 39.3329 55.6615 40.1533 55.6615 40.5262V42.0177L53.4242 45.0008L50.814 44.255C50.814 43.1364 50.814 40.6007 50.814 39.4075C50.814 38.2143 51.5597 37.6674 51.9326 37.5431L59.7632 35.6786L60.509 33.4412H61.7675C61.6277 34.187 61.2548 34.9329 61.7675 36.0515C62.6037 37.876 66.8481 37.7126 68.7125 37.5431C69.4583 37.4753 71.6956 36.4244 71.3227 34.5601C71.2191 34.042 71.3227 33.8141 70.9498 33.0684C72.0685 33.4413 72.4414 33.8141 72.4414 33.8141C72.4414 33.8141 73.3825 34.6133 74.3058 35.3057L75.0516 35.6786H80.272C80.7692 35.6786 81.7635 36.0515 81.7635 37.5431C81.7635 39.0346 81.7635 41.3962 81.7635 42.3906L81.3906 42.7635L79.5262 40.5262C79.6505 39.6561 79.7499 37.916 79.1533 37.916C78.5567 37.916 78.5008 38.9103 78.5474 39.4075V40.5262" stroke="#1F1111" stroke-linecap="round" stroke-linejoin="round"/>
<path d="M64.2379 38.2883L62.0006 37.5425H59.3904L56.0344 42.0171L57.1531 47.2375H58.2717" stroke="#1F1111" stroke-linecap="round" stroke-linejoin="round"/>
<path d="M70.577 37.5431L72.8143 36.7974H75.4245L78.7805 41.272L77.6619 46.4924H75.7974" stroke="#1F1111" stroke-linecap="round" stroke-linejoin="round"/>
<path d="M60.1362 38.2888L64.2379 38.6617L64.9837 43.8821L62.3735 47.611L58.2717 47.2381L57.1531 42.3906L60.1362 38.2888Z" stroke="#1F1111" stroke-linecap="round" stroke-linejoin="round"/>
<path d="M40.0003 71.1028L43.3563 73.3404L42.6105 78.5608L38.1359 81.171L34.5561 78.7771L35.2349 73.8487L40.0003 71.1028Z" stroke="#1F1111" stroke-linecap="round" stroke-linejoin="round"/>
<path d="M96.9638 67.1191L93.6078 69.3568L94.3536 74.5772L98.8282 77.1874L102.408 74.7934L101.729 69.865L96.9638 67.1191Z" stroke="#1F1111" stroke-linecap="round" stroke-linejoin="round"/>
<path d="M42.2377 72.594L38.8817 70.3567L34.4071 72.9671L33.2885 78.1875L37.0173 80.4248" stroke="#1F1111" stroke-linecap="round" stroke-linejoin="round"/>
<path d="M94.766 68.5444L98.1168 66.2935L102.615 68.965L103.764 74.2653L100.039 76.5142" stroke="#1F1111" stroke-linecap="round" stroke-linejoin="round"/>
<path d="M73.9329 37.5425L69.8312 37.9154L69.0854 43.1358L71.6956 46.8646L75.7974 46.4918L76.916 41.6442L73.9329 37.5425Z" stroke="#1F1111" stroke-linecap="round" stroke-linejoin="round"/>
<path d="M62.3735 85.4314C51.3548 86.2937 42.9834 90.5692 42.9834 95.7136C42.9834 101.48 53.5011 106.154 66.4752 106.154C79.4494 106.154 89.9671 101.48 89.9671 95.7136C89.9671 90.5692 81.5956 86.2937 70.577 85.4314" stroke="#1F1111" stroke-linecap="round" stroke-linejoin="round"/>
<path d="M85.3049 101.306C82.1902 98.3926 76.7282 96.2907 69.8312 95.8149M63.1192 95.7129C56.2222 96.1888 50.7602 98.3926 47.6455 101.306" stroke="#1F1111" stroke-linecap="round" stroke-linejoin="round"/>
<path d="M69.8311 95.7129V103.677C69.8311 104.633 68.3286 105.408 66.4751 105.408C64.6217 105.408 63.1191 104.633 63.1191 103.677V95.7129" stroke="#1F1111" stroke-linecap="round" stroke-linejoin="round"/>
<path d="M70.577 94.2214C70.577 95.0452 68.7406 95.713 66.4753 95.713C64.21 95.713 62.3735 95.0452 62.3735 94.2214" stroke="#1F1111" stroke-linecap="round" stroke-linejoin="round"/>
<path d="M70.577 83.781C70.577 84.6048 68.7406 85.2726 66.4753 85.2726C64.21 85.2726 62.3735 84.6048 62.3735 83.781" stroke="#1F1111" stroke-linecap="round" stroke-linejoin="round"/>
<path d="M70.577 73.3398C70.577 74.1636 68.7406 74.8314 66.4753 74.8314C64.21 74.8314 62.3735 74.1636 62.3735 73.3398" stroke="#1F1111" stroke-linecap="round" stroke-linejoin="round"/>
<path d="M70.577 62.8989C70.577 63.7227 68.7406 64.3905 66.4753 64.3905C64.21 64.3905 62.3735 63.7227 62.3735 62.8989" stroke="#1F1111" stroke-linecap="round" stroke-linejoin="round"/>
<path d="M70.577 52.4585C70.577 53.2823 68.7406 53.95 66.4753 53.95C64.21 53.95 62.3735 53.2823 62.3735 52.4585" stroke="#1F1111" stroke-linecap="round" stroke-linejoin="round"/>
<path d="M70.577 35.3057C70.577 36.1294 68.7406 36.7972 66.4753 36.7972C64.21 36.7972 62.3735 36.1294 62.3735 35.3057" stroke="#1F1111" stroke-linecap="round" stroke-linejoin="round"/>
<path d="M70.577 92.73C70.577 93.5537 68.7406 94.2215 66.4753 94.2215C64.21 94.2215 62.3735 93.5537 62.3735 92.73" stroke="#1F1111" stroke-linecap="round" stroke-linejoin="round"/>
<path d="M70.577 82.2891C70.577 83.1128 68.7406 83.7806 66.4753 83.7806C64.21 83.7806 62.3735 83.1128 62.3735 82.2891" stroke="#1F1111" stroke-linecap="round" stroke-linejoin="round"/>
<path d="M70.577 71.8484C70.577 72.6721 68.7406 73.3399 66.4753 73.3399C64.21 73.3399 62.3735 72.6721 62.3735 71.8484" stroke="#1F1111" stroke-linecap="round" stroke-linejoin="round"/>
<path d="M70.577 61.4075C70.577 62.2312 68.7406 62.899 66.4753 62.899C64.21 62.899 62.3735 62.2312 62.3735 61.4075" stroke="#1F1111" stroke-linecap="round" stroke-linejoin="round"/>
<path d="M70.577 50.967C70.577 51.7908 68.7406 52.4586 66.4753 52.4586C64.21 52.4586 62.3735 51.7908 62.3735 50.967" stroke="#1F1111" stroke-linecap="round" stroke-linejoin="round"/>
<path d="M70.577 33.8137C70.577 34.6375 68.7406 35.3053 66.4753 35.3053C64.21 35.3053 62.3735 34.6375 62.3735 33.8137" stroke="#1F1111" stroke-linecap="round" stroke-linejoin="round"/>
<path d="M70.577 91.2385C70.577 92.0623 68.7406 92.7301 66.4753 92.7301C64.21 92.7301 62.3735 92.0623 62.3735 91.2385" stroke="#1F1111" stroke-linecap="round" stroke-linejoin="round"/>
<path d="M70.577 80.7974C70.577 81.6211 68.7406 82.2889 66.4753 82.2889C64.21 82.2889 62.3735 81.6211 62.3735 80.7974" stroke="#1F1111" stroke-linecap="round" stroke-linejoin="round"/>
<path d="M70.577 70.3569C70.577 71.1807 68.7406 71.8485 66.4753 71.8485C64.21 71.8485 62.3735 71.1807 62.3735 70.3569" stroke="#1F1111" stroke-linecap="round" stroke-linejoin="round"/>
<path d="M70.577 59.916C70.577 60.7398 68.7406 61.4076 66.4753 61.4076C64.21 61.4076 62.3735 60.7398 62.3735 59.916" stroke="#1F1111" stroke-linecap="round" stroke-linejoin="round"/>
<path d="M70.577 49.4751C70.577 50.2989 68.7406 50.9666 66.4753 50.9666C64.21 50.9666 62.3735 50.2989 62.3735 49.4751" stroke="#1F1111" stroke-linecap="round" stroke-linejoin="round"/>
<path d="M70.577 32.3223C70.577 33.146 68.7406 33.8138 66.4753 33.8138C64.21 33.8138 62.3735 33.146 62.3735 32.3223" stroke="#1F1111" stroke-linecap="round" stroke-linejoin="round"/>
<path d="M70.577 89.7471C70.577 90.5708 68.7406 91.2386 66.4753 91.2386C64.21 91.2386 62.3735 90.5708 62.3735 89.7471" stroke="#1F1111" stroke-linecap="round" stroke-linejoin="round"/>
<path d="M70.577 79.3059C70.577 80.1297 68.7406 80.7975 66.4753 80.7975C64.21 80.7975 62.3735 80.1297 62.3735 79.3059" stroke="#1F1111" stroke-linecap="round" stroke-linejoin="round"/>
<path d="M70.577 68.865C70.577 69.6887 68.7406 70.3565 66.4753 70.3565C64.21 70.3565 62.3735 69.6887 62.3735 68.865" stroke="#1F1111" stroke-linecap="round" stroke-linejoin="round"/>
<path d="M70.577 58.4246C70.577 59.2483 68.7406 59.9161 66.4753 59.9161C64.21 59.9161 62.3735 59.2483 62.3735 58.4246" stroke="#1F1111" stroke-linecap="round" stroke-linejoin="round"/>
<path d="M70.577 47.9834C70.577 48.8072 68.7406 49.4749 66.4753 49.4749C64.21 49.4749 62.3735 48.8072 62.3735 47.9834" stroke="#1F1111" stroke-linecap="round" stroke-linejoin="round"/>
<path d="M70.577 30.8308C70.577 31.6546 68.7406 32.3224 66.4753 32.3224C64.21 32.3224 62.3735 31.6546 62.3735 30.8308" stroke="#1F1111" stroke-linecap="round" stroke-linejoin="round"/>
<path d="M70.577 88.2554C70.577 89.0791 68.7406 89.7469 66.4753 89.7469C64.21 89.7469 62.3735 89.0791 62.3735 88.2554" stroke="#1F1111" stroke-linecap="round" stroke-linejoin="round"/>
<path d="M70.577 77.8145C70.577 78.6382 68.7406 79.306 66.4753 79.306C64.21 79.306 62.3735 78.6382 62.3735 77.8145" stroke="#1F1111" stroke-linecap="round" stroke-linejoin="round"/>
<path d="M70.577 67.3735C70.577 68.1973 68.7406 68.8651 66.4753 68.8651C64.21 68.8651 62.3735 68.1973 62.3735 67.3735" stroke="#1F1111" stroke-linecap="round" stroke-linejoin="round"/>
<path d="M70.577 56.9324C70.577 57.7561 68.7406 58.4239 66.4753 58.4239C64.21 58.4239 62.3735 57.7561 62.3735 56.9324" stroke="#1F1111" stroke-linecap="round" stroke-linejoin="round"/>
<path d="M70.5771 46.4919C70.5771 47.3157 68.7407 47.9835 66.4754 47.9835C64.9571 47.9835 63.6316 47.6835 62.9224 47.2377" stroke="#1F1111" stroke-linecap="round" stroke-linejoin="round"/>
<path d="M70.577 29.3394C70.577 30.1631 68.7406 30.8309 66.4753 30.8309C64.21 30.8309 62.3735 30.1631 62.3735 29.3394" stroke="#1F1111" stroke-linecap="round" stroke-linejoin="round"/>
<path d="M70.577 86.7639C70.577 87.5877 68.7406 88.2555 66.4753 88.2555C64.21 88.2555 62.3735 87.5877 62.3735 86.7639" stroke="#1F1111" stroke-linecap="round" stroke-linejoin="round"/>
<path d="M70.577 76.323C70.577 77.1468 68.7406 77.8145 66.4753 77.8145C64.21 77.8145 62.3735 77.1468 62.3735 76.323" stroke="#1F1111" stroke-linecap="round" stroke-linejoin="round"/>
<path d="M70.577 65.8823C70.577 66.7061 68.7406 67.3739 66.4753 67.3739C64.21 67.3739 62.3735 66.7061 62.3735 65.8823" stroke="#1F1111" stroke-linecap="round" stroke-linejoin="round"/>
<path d="M70.577 55.4414C70.577 56.2652 68.7406 56.933 66.4753 56.933C64.21 56.933 62.3735 56.2652 62.3735 55.4414" stroke="#1F1111" stroke-linecap="round" stroke-linejoin="round"/>
<path d="M70.204 45.3735C69.8311 46.1193 67.5153 46.4922 66.4751 46.4922C65.4348 46.4922 64.485 46.3514 63.762 46.1193" stroke="#1F1111" stroke-linecap="round" stroke-linejoin="round"/>
<path d="M70.577 27.8477C70.577 28.6714 68.7406 29.3392 66.4753 29.3392C64.21 29.3392 62.3735 28.6714 62.3735 27.8477" stroke="#1F1111" stroke-linecap="round" stroke-linejoin="round"/>
<path d="M70.577 85.2725C70.577 86.0962 68.7406 86.764 66.4753 86.764C64.21 86.764 62.3735 86.0962 62.3735 85.2725" stroke="#1F1111" stroke-linecap="round" stroke-linejoin="round"/>
<path d="M70.577 74.8315C70.577 75.6553 68.7406 76.3231 66.4753 76.3231C64.21 76.3231 62.3735 75.6553 62.3735 74.8315" stroke="#1F1111" stroke-linecap="round" stroke-linejoin="round"/>
<path d="M70.577 64.3909C70.577 65.2146 68.7406 65.8824 66.4753 65.8824C64.21 65.8824 62.3735 65.2146 62.3735 64.3909" stroke="#1F1111" stroke-linecap="round" stroke-linejoin="round"/>
<path d="M70.577 53.95C70.577 54.7737 68.7406 55.4415 66.4753 55.4415C64.21 55.4415 62.3735 54.7737 62.3735 53.95" stroke="#1F1111" stroke-linecap="round" stroke-linejoin="round"/>
<path d="M64.6108 44.8386C65.1702 44.9426 65.8039 45.0013 66.4753 45.0013C67.6506 45.0013 68.7105 44.8215 69.4584 44.5334" stroke="#1F1111" stroke-linecap="round" stroke-linejoin="round"/>
<path d="M70.577 26.3562C70.577 27.18 68.7406 27.8477 66.4753 27.8477C64.21 27.8477 62.3735 27.18 62.3735 26.3562" stroke="#1F1111" stroke-linecap="round" stroke-linejoin="round"/>
<path d="M70.577 24.8647C70.577 25.6885 68.7406 26.3563 66.4753 26.3563C64.21 26.3563 62.3735 25.6885 62.3735 24.8647" stroke="#1F1111" stroke-linecap="round" stroke-linejoin="round"/>
<ellipse cx="61.8311" cy="42.8837" rx="1.73119" ry="2.07742" transform="rotate(14.7709 61.8311 42.8837)" stroke="#1F1111" stroke-linecap="round" stroke-linejoin="round"/>
<ellipse cx="39.2209" cy="76.5359" rx="1.73119" ry="2.07742" transform="rotate(35.0372 39.2209 76.5359)" stroke="#1F1111" stroke-linecap="round" stroke-linejoin="round"/>
<ellipse rx="1.73119" ry="2.07742" transform="matrix(-0.818779 0.574108 0.574108 0.818779 97.7432 72.5523)" stroke="#1F1111" stroke-linecap="round" stroke-linejoin="round"/>
<ellipse rx="1.73119" ry="2.07742" transform="matrix(-0.966953 0.254955 0.254955 0.966953 72.238 42.1374)" stroke="#1F1111" stroke-linecap="round" stroke-linejoin="round"/>
<line x1="56.6531" y1="42.5176" x2="56.1615" y2="42.5176" stroke="#1F1111" stroke-linecap="round" stroke-linejoin="round"/>
<line x1="50.5159" y1="38.5124" x2="49.9188" y2="38.2139" stroke="#1F1111" stroke-linecap="round" stroke-linejoin="round"/>
<path d="M36.3026 88.2947C35.2253 90.3233 33.0794 91.1046 31.5779 90.3073C30.0765 89.51 29.5219 87.2946 30.5991 85.266C31.6763 83.2375 33.8223 82.4561 35.3237 83.2534C36.8252 84.0507 37.3798 86.2662 36.3026 88.2947Z" stroke="#1F1111" stroke-linecap="round" stroke-linejoin="round"/>
<path d="M102.849 83.0955C101.275 81.423 101.225 79.1398 102.463 77.9746C103.701 76.8094 105.977 76.9969 107.551 78.6694C109.126 80.3419 109.175 82.6251 107.937 83.7903C106.699 84.9555 104.423 84.768 102.849 83.0955Z" stroke="#1F1111" stroke-linecap="round" stroke-linejoin="round"/>
<path d="M103.659 82.5555C102.603 81.4334 102.603 79.9449 103.385 79.2096C104.166 78.4744 105.651 78.5642 106.708 79.6863C107.764 80.8083 107.764 82.2969 106.982 83.0321C106.201 83.7674 104.716 83.6775 103.659 82.5555Z" stroke="#1F1111" stroke-linecap="round" stroke-linejoin="round"/>
<path d="M36.5672 88.2375C35.2866 90.649 32.5714 91.5958 30.549 90.5219C28.5267 89.448 27.7903 86.6683 29.0709 84.2568C30.3514 81.8453 33.0667 80.8984 35.089 81.9724C37.1114 83.0463 37.8477 85.826 36.5672 88.2375Z" stroke="#1F1111" stroke-linecap="round" stroke-linejoin="round"/>
<path d="M102.818 83.3639C100.947 81.3757 100.924 78.5002 102.591 76.9308C104.258 75.3614 107.127 75.5583 108.999 77.5465C110.87 79.5347 110.893 82.4102 109.226 83.9796C107.558 85.549 104.69 85.3521 102.818 83.3639Z" stroke="#1F1111" stroke-linecap="round" stroke-linejoin="round"/>
<path d="M36.2741 70.3442C35.1237 70.8778 34.0817 71.8449 33.3905 73.1464C32.319 75.1642 32.6565 77.0006 33.6612 78.5601" stroke="#1F1111" stroke-linecap="round" stroke-linejoin="round"/>
<path d="M104.882 68.8657C104.137 67.0011 102.272 65.8357 100.408 65.8356" stroke="#1F1111" stroke-linecap="round" stroke-linejoin="round"/>
<line x1="22.494" y1="113.769" x2="28.9712" y2="112.474" stroke="#1F1111" stroke-linecap="round" stroke-linejoin="round"/>
<path d="M31.051 122.188L32.1697 121.815C32.6669 122.188 33.9595 123.083 35.1528 123.68C36.346 124.276 37.3901 124.923 37.763 125.171" stroke="#1F1111" stroke-linecap="round" stroke-linejoin="round"/>
<line x1="94.1438" y1="48.1825" x2="100.606" y2="47.5362" stroke="#1F1111" stroke-linecap="round" stroke-linejoin="round"/>
<line x1="94.1438" y1="46.6905" x2="100.606" y2="46.0443" stroke="#1F1111" stroke-linecap="round" stroke-linejoin="round"/>
<line x1="110.603" y1="106.4" x2="117.061" y2="106.4" stroke="#1F1111" stroke-linecap="round" stroke-linejoin="round"/>
<line x1="110.603" y1="104.162" x2="117.061" y2="104.162" stroke="#1F1111" stroke-linecap="round" stroke-linejoin="round"/>
<line x1="44.9749" y1="91.2383" x2="44.9749" y2="99.4418" stroke="#1F1111"/>
<line x1="88.9756" y1="92.7302" x2="88.9756" y2="99.4422" stroke="#1F1111"/>
<line x1="46.4666" y1="90.4929" x2="46.4666" y2="100.934" stroke="#1F1111"/>
<line x1="87.4839" y1="91.2383" x2="87.4839" y2="100.188" stroke="#1F1111"/>
<line x1="47.958" y1="89.0015" x2="47.958" y2="100.934" stroke="#1F1111"/>
<line x1="42.7375" y1="115.103" x2="42.7375" y2="127.035" stroke="#1F1111"/>
<line x1="41.2461" y1="115.103" x2="41.2461" y2="127.035" stroke="#1F1111"/>
<line x1="39.7546" y1="114.358" x2="39.7546" y2="126.29" stroke="#1F1111"/>
<line x1="38.2629" y1="113.612" x2="38.2629" y2="125.544" stroke="#1F1111"/>
<line x1="36.7715" y1="112.866" x2="36.7715" y2="124.798" stroke="#1F1111"/>
<line x1="35.2798" y1="112.12" x2="35.2798" y2="124.052" stroke="#1F1111"/>
<line x1="33.7883" y1="111.375" x2="33.7883" y2="123.307" stroke="#1F1111"/>
<line x1="32.2969" y1="110.628" x2="32.2969" y2="122.561" stroke="#1F1111"/>
<line x1="30.8052" y1="109.137" x2="30.8052" y2="121.07" stroke="#1F1111"/>
<line y1="-0.5" x2="11.9324" y2="-0.5" transform="matrix(4.37114e-08 1 1 -4.37114e-08 86.2383 89.7466)" stroke="#1F1111"/>
<line x1="49.4495" y1="88.2551" x2="49.4495" y2="100.187" stroke="#1F1111"/>
<line x1="44.9749" y1="115.849" x2="44.9749" y2="128.527" stroke="#1F1111"/>
<line y1="-0.5" x2="11.9324" y2="-0.5" transform="matrix(4.37114e-08 1 1 -4.37114e-08 84.7466 89.0015)" stroke="#1F1111"/>
<line x1="51.6868" y1="87.5093" x2="51.6868" y2="98.6959" stroke="#1F1111"/>
<line x1="47.958" y1="116.595" x2="47.958" y2="129.273" stroke="#1F1111"/>
<line x1="81.5178" y1="87.5093" x2="81.5178" y2="98.6959" stroke="#1F1111"/>
<line x1="55.4158" y1="86.7642" x2="55.4158" y2="97.205" stroke="#1F1111"/>
<line x1="52.4326" y1="117.34" x2="52.4326" y2="130.018" stroke="#1F1111"/>
<line x1="105.383" y1="103.917" x2="105.383" y2="115.104" stroke="#1F1111"/>
<line x1="103.891" y1="106.154" x2="103.891" y2="117.341" stroke="#1F1111"/>
<line x1="102.399" y1="107.646" x2="102.399" y2="119.578" stroke="#1F1111"/>
<line x1="100.908" y1="109.137" x2="100.908" y2="120.324" stroke="#1F1111"/>
<line x1="97.9248" y1="111.375" x2="97.9248" y2="122.561" stroke="#1F1111"/>
<line x1="77.7891" y1="86.7642" x2="77.7891" y2="97.205" stroke="#1F1111"/>
<line x1="59.8904" y1="86.0178" x2="59.8904" y2="96.4586" stroke="#1F1111"/>
<line x1="67.3481" y1="118.832" x2="67.3481" y2="131.51" stroke="#1F1111"/>
<line x1="73.3142" y1="86.0178" x2="73.3142" y2="96.4586" stroke="#1F1111"/>
</g>
</svg>
