<svg width="20" height="22" viewBox="0 0 20 22" fill="none" xmlns="http://www.w3.org/2000/svg">
<path d="M2.78217 6.93844L2.8995 7.67921H2.8995L2.78217 6.93844ZM6.93844 2.78217L7.67921 2.8995V2.8995L6.93844 2.78217ZM16.9389 20.0451L16.4981 19.4383L16.9389 20.0451ZM18.0451 18.9389L17.4383 18.4981L18.0451 18.9389ZM1.95491 18.9389L2.56168 18.4981L1.95491 18.9389ZM3.06107 20.0451L3.50191 19.4383L3.06107 20.0451ZM3.06107 1.95491L2.62024 1.34815L3.06107 1.95491ZM1.95491 3.06107L1.34815 2.62023L1.95491 3.06107ZM16.9389 1.95491L16.4981 2.56168L16.9389 1.95491ZM18.0451 3.06107L17.4383 3.50191L18.0451 3.06107ZM7 1.02893L6.97432 0.279368L7 1.02893ZM1.02893 7L0.279369 6.97432L1.02893 7ZM10.75 8C10.75 7.58579 10.4142 7.25 10 7.25C9.58579 7.25 9.25 7.58579 9.25 8H10.75ZM14.5327 13.328C14.8243 13.0338 14.8222 12.5589 14.528 12.2673C14.2338 11.9757 13.7589 11.9778 13.4673 12.272L14.5327 13.328ZM12.6022 14.2104L13.1348 14.7383L12.6022 14.2104ZM7.39785 14.2104L7.93054 13.6824L7.39785 14.2104ZM6.53269 12.272C6.24111 11.9778 5.76624 11.9757 5.47204 12.2673C5.17784 12.5589 5.17572 13.0338 5.46731 13.328L6.53269 12.272ZM10.2507 15.9841L10.3455 16.7281L10.3455 16.7281L10.2507 15.9841ZM9.74933 15.9841L9.6545 16.7281L9.65451 16.7281L9.74933 15.9841ZM2.8995 7.67921C5.35988 7.28952 7.28952 5.35988 7.67921 2.8995L6.19768 2.66485C5.90965 4.48339 4.48339 5.90965 2.66485 6.19768L2.8995 7.67921ZM0.25 10V12H1.75V10H0.25ZM19.75 12V10H18.25V12H19.75ZM10 21.75C11.8582 21.75 13.312 21.751 14.4635 21.6263C15.6291 21.5 16.5734 21.2377 17.3798 20.6518L16.4981 19.4383C15.9901 19.8074 15.3399 20.0225 14.302 20.135C13.25 20.249 11.8916 20.25 10 20.25V21.75ZM18.25 12C18.25 13.8916 18.249 15.25 18.135 16.302C18.0225 17.3399 17.8074 17.9901 17.4383 18.4981L18.6518 19.3798C19.2377 18.5734 19.5 17.6291 19.6263 16.4635C19.751 15.312 19.75 13.8582 19.75 12H18.25ZM17.3798 20.6518C17.8679 20.2972 18.2972 19.8679 18.6518 19.3798L17.4383 18.4981C17.1762 18.8589 16.8589 19.1762 16.4981 19.4383L17.3798 20.6518ZM0.25 12C0.25 13.8582 0.24897 15.312 0.373727 16.4635C0.500005 17.6291 0.762323 18.5734 1.34815 19.3798L2.56168 18.4981C2.19259 17.9901 1.97745 17.3399 1.865 16.302C1.75103 15.25 1.75 13.8916 1.75 12H0.25ZM10 20.25C8.10843 20.25 6.74999 20.249 5.69804 20.135C4.66013 20.0225 4.00992 19.8074 3.50191 19.4383L2.62024 20.6518C3.42656 21.2377 4.37094 21.5 5.53648 21.6263C6.68798 21.751 8.14184 21.75 10 21.75V20.25ZM1.34815 19.3798C1.70281 19.8679 2.13209 20.2972 2.62024 20.6518L3.50191 19.4383C3.14111 19.1762 2.82381 18.8589 2.56168 18.4981L1.34815 19.3798ZM2.62024 1.34815C2.13209 1.70281 1.70281 2.13209 1.34815 2.62023L2.56168 3.50191C2.82381 3.14111 3.14111 2.82382 3.50191 2.56168L2.62024 1.34815ZM10 1.75C11.8916 1.75 13.25 1.75103 14.302 1.865C15.3399 1.97745 15.9901 2.19259 16.4981 2.56168L17.3798 1.34815C16.5734 0.762324 15.6291 0.500006 14.4635 0.373728C13.312 0.248971 11.8582 0.25 10 0.25V1.75ZM19.75 10C19.75 8.14184 19.751 6.68798 19.6263 5.53648C19.5 4.37094 19.2377 3.42656 18.6518 2.62023L17.4383 3.50191C17.8074 4.00992 18.0225 4.66013 18.135 5.69804C18.249 6.74999 18.25 8.10843 18.25 10H19.75ZM16.4981 2.56168C16.8589 2.82382 17.1762 3.14111 17.4383 3.50191L18.6518 2.62023C18.2972 2.13209 17.8679 1.70281 17.3798 1.34815L16.4981 2.56168ZM10 0.25C8.83522 0.25 7.83424 0.249906 6.97432 0.279368L7.02568 1.77849C7.85445 1.75009 8.82692 1.75 10 1.75V0.25ZM6.97432 0.279368C5.10087 0.343555 3.7239 0.546296 2.62024 1.34815L3.50191 2.56168C4.20746 2.04907 5.17075 1.84204 7.02568 1.77849L6.97432 0.279368ZM6.25 1.02892C6.24999 1.96617 6.24707 2.35298 6.19768 2.66485L7.67921 2.8995C7.75165 2.44215 7.74999 1.91121 7.75 1.02893L6.25 1.02892ZM1.75 10C1.75 8.82692 1.75009 7.85445 1.77849 7.02568L0.279369 6.97432C0.249906 7.83424 0.25 8.83522 0.25 10H1.75ZM1.77849 7.02568C1.84204 5.17075 2.04907 4.20746 2.56168 3.50191L1.34815 2.62023C0.546295 3.7239 0.343555 5.10087 0.279369 6.97432L1.77849 7.02568ZM1.02893 7.75C1.91121 7.74999 2.44215 7.75165 2.8995 7.67921L2.66485 6.19768C2.35298 6.24707 1.96618 6.24999 1.02892 6.25L1.02893 7.75ZM9.25 8V15.2H10.75V8H9.25ZM13.4673 12.272L12.0695 13.6824L13.1348 14.7383L14.5327 13.328L13.4673 12.272ZM7.93054 13.6824L6.53269 12.272L5.46731 13.328L6.86516 14.7383L7.93054 13.6824ZM12.0695 13.6824C11.4997 14.2573 11.1161 14.6427 10.7935 14.9018C10.4827 15.1514 10.302 15.2215 10.1558 15.2401L10.3455 16.7281C10.8787 16.6601 11.3163 16.4057 11.7328 16.0713C12.1373 15.7464 12.5899 15.2882 13.1348 14.7383L12.0695 13.6824ZM6.86516 14.7383C7.41012 15.2882 7.86265 15.7464 8.26724 16.0713C8.68366 16.4057 9.12131 16.6601 9.6545 16.7281L9.84416 15.2401C9.698 15.2215 9.51728 15.1514 9.20649 14.9018C8.88386 14.6427 8.50033 14.2573 7.93054 13.6824L6.86516 14.7383ZM10.1558 15.2401C10.1041 15.2467 10.052 15.25 10 15.25V16.75C10.1154 16.75 10.2308 16.7427 10.3455 16.7281L10.1558 15.2401ZM10 15.25C9.94796 15.25 9.89591 15.2467 9.84416 15.2401L9.65451 16.7281C9.76921 16.7427 9.8846 16.75 10 16.75V15.25ZM9.25 15.2V16H10.75V15.2H9.25Z" fill="#AB2421"/>
</svg>
