<svg width="295" height="153" viewBox="0 0 295 153" fill="none" xmlns="http://www.w3.org/2000/svg">
<path d="M294.991 90.3901H287.438C285.059 90.3987 283.129 90.0185 281.641 89.2668C280.153 88.5064 279.063 87.3313 278.379 85.7328C277.687 84.1429 277.35 82.0951 277.358 79.5979C277.358 77.8266 277.557 76.2713 277.947 74.9233C278.336 73.584 278.933 72.4607 279.729 71.5708C280.577 70.6116 281.658 69.8945 282.982 69.4192C284.297 68.9526 285.855 68.7107 287.646 68.7107H295V72.5817H288.199C287.204 72.5817 286.356 72.694 285.656 72.9187C284.946 73.1433 284.375 73.4803 283.934 73.9124C282.956 74.9233 282.472 76.6774 282.472 79.1745C282.472 80.5225 282.584 81.6717 282.792 82.6135C283.008 83.564 283.337 84.3071 283.769 84.8601C284.652 85.9661 286.175 86.5191 288.355 86.5191H294.991V90.3901Z" fill="white"/>
<path d="M274.058 90.3901H269.662V74.4999L260.786 90.3901H255.118V68.7107H259.514V84.8687L268.166 68.7107H274.058V90.3901Z" fill="white"/>
<path d="M251.738 84.6354C251.738 85.5945 251.608 86.424 251.34 87.1239C251.08 87.8238 250.682 88.4027 250.137 88.8607C249.549 89.3618 248.779 89.742 247.818 90.0013C246.867 90.2518 245.725 90.3901 244.41 90.3901H232.401V68.7107H244.669C245.906 68.7107 246.979 68.8403 247.888 69.1082C248.796 69.3674 249.549 69.7735 250.137 70.3092C250.674 70.7845 251.072 71.3547 251.34 72.0373C251.608 72.72 251.738 73.5063 251.738 74.4049C251.729 75.1566 251.599 75.8824 251.331 76.565C251.063 77.2563 250.7 77.8611 250.224 78.3882C249.748 78.9067 249.203 79.3128 248.58 79.572C249.635 80.0386 250.431 80.6953 250.951 81.5421C251.478 82.3888 251.738 83.4171 251.738 84.6354ZM246.624 74.9492C246.624 74.5086 246.573 74.1457 246.469 73.8519C246.374 73.5495 246.218 73.3248 246.002 73.1606C245.759 72.9619 245.422 72.815 244.989 72.72C244.557 72.6249 244.029 72.5731 243.397 72.5731H237.021V77.6106H243.302C243.951 77.6106 244.505 77.5501 244.955 77.4378C245.413 77.3168 245.759 77.1353 246.002 76.8934C246.209 76.6947 246.374 76.4354 246.469 76.1157C246.573 75.796 246.624 75.4072 246.624 74.9492ZM246.659 83.8578C246.65 83.0628 246.374 82.4666 245.811 82.0778C245.249 81.6803 244.453 81.4902 243.406 81.4902H237.029V86.5277H243.311C244.487 86.5191 245.344 86.2944 245.88 85.8365C246.408 85.3785 246.668 84.7218 246.659 83.8578Z" fill="white"/>
<path d="M229.445 75.7701C229.445 76.7897 229.306 77.7143 229.03 78.5265C228.761 79.3473 228.355 80.0559 227.818 80.678C227.187 81.3952 226.391 81.9309 225.448 82.2852C224.496 82.6481 223.388 82.8209 222.125 82.8209H214.702V90.3987H210.082V68.7107H220.923C222.532 68.7107 223.916 68.8921 225.076 69.2723C226.235 69.6439 227.161 70.1969 227.861 70.9227C228.398 71.493 228.796 72.1756 229.064 72.9792C229.315 73.7828 229.445 74.7073 229.445 75.7701ZM224.366 75.6059C224.366 75.0702 224.314 74.6123 224.21 74.2407C224.115 73.8692 223.959 73.5754 223.743 73.3594C223.501 73.1001 223.155 72.9014 222.705 72.7718C222.255 72.6422 221.71 72.5731 221.078 72.5731H214.702V78.9412H220.983C221.831 78.9412 222.506 78.8289 222.999 78.5956C223.501 78.3623 223.847 77.9908 224.063 77.4982C224.271 77.0144 224.375 76.3836 224.366 75.6059Z" fill="white"/>
<path d="M206.437 90.3901H200.415C198.572 90.3901 196.971 90.2086 195.613 89.863C194.246 89.5001 193.113 88.9817 192.221 88.2818C191.149 87.4177 190.344 86.2512 189.808 84.7909C189.271 83.322 189.003 81.5421 189.003 79.4424C189.003 77.6192 189.237 76.0293 189.712 74.6555C190.18 73.2902 190.88 72.141 191.806 71.2165C192.637 70.387 193.623 69.7649 194.765 69.3415C195.907 68.9267 197.196 68.7107 198.641 68.7107H206.454V72.5817H200.432C199.178 72.5817 198.14 72.6768 197.326 72.8669C196.504 73.0569 195.907 73.3421 195.518 73.7136C195.206 74.0247 194.947 74.4999 194.739 75.1566C194.523 75.8133 194.367 76.6515 194.255 77.6797H206.463V81.5507H194.255C194.333 82.4752 194.514 83.2616 194.783 83.9096C195.059 84.5576 195.423 85.0761 195.881 85.4476C196.357 85.8019 196.98 86.0698 197.767 86.2512C198.555 86.4327 199.507 86.5191 200.631 86.5191H206.454V90.3901H206.437Z" fill="white"/>
<path d="M186.876 90.3901H179.322C176.943 90.3987 175.014 90.0185 173.525 89.2668C172.037 88.5064 170.947 87.3313 170.264 85.7328C169.571 84.1429 169.234 82.0951 169.234 79.5979C169.234 77.8266 169.433 76.2713 169.822 74.9233C170.212 73.584 170.809 72.4607 171.605 71.5708C172.453 70.6116 173.534 69.8945 174.849 69.4192C176.164 68.9526 177.722 68.7107 179.513 68.7107H186.867V72.5817H180.066C179.071 72.5817 178.223 72.694 177.523 72.9187C176.813 73.1433 176.242 73.4803 175.801 73.9124C174.823 74.9233 174.339 76.6774 174.339 79.1745C174.339 80.5225 174.451 81.6717 174.659 82.6135C174.875 83.564 175.204 84.3071 175.645 84.8601C176.528 85.9661 178.05 86.5191 180.231 86.5191H186.867V90.3901H186.876Z" fill="white"/>
<path d="M169.528 72.5817H162.693V90.3901H158.072V72.5817H151.462V68.7107H169.528V72.5817Z" fill="white"/>
<path d="M150.223 75.7701C150.223 76.7897 150.084 77.7143 149.807 78.5265C149.539 79.3473 149.132 80.0559 148.596 80.678C147.964 81.3952 147.168 81.9309 146.225 82.2852C145.274 82.6481 144.166 82.8209 142.903 82.8209H135.479V90.3987H130.859V68.7107H141.7C143.31 68.7107 144.694 68.8921 145.853 69.2723C147.013 69.6439 147.938 70.1969 148.639 70.9227C149.176 71.493 149.574 72.1756 149.833 72.9792C150.093 73.7828 150.223 74.7073 150.223 75.7701ZM145.152 75.6059C145.152 75.0702 145.101 74.6123 144.997 74.2407C144.902 73.8692 144.746 73.5754 144.529 73.3594C144.287 73.1001 143.941 72.9014 143.491 72.7718C143.041 72.6422 142.496 72.5731 141.865 72.5731H135.488V78.9412H141.769C142.617 78.9412 143.292 78.8289 143.785 78.5956C144.287 78.3623 144.642 77.9908 144.85 77.4982C145.049 77.0144 145.152 76.3836 145.152 75.6059Z" fill="white"/>
<path d="M127.572 79.858C127.572 81.5688 127.365 83.0723 126.941 84.3857C126.517 85.6991 125.885 86.8051 125.037 87.695C124.146 88.6369 123.039 89.3368 121.741 89.812C120.434 90.2786 118.92 90.5205 117.199 90.5205C114.733 90.5119 112.691 90.0971 111.056 89.259C109.42 88.4295 108.2 87.2025 107.387 85.5867C106.574 83.9709 106.167 82.0009 106.167 79.6679C106.159 77.1534 106.539 75.0797 107.292 73.4293C108.045 71.7876 109.221 70.5606 110.796 69.7571C112.379 68.9535 114.404 68.5474 116.87 68.5474C119.336 68.5474 121.36 68.9621 122.944 69.783C124.518 70.6038 125.695 71.8567 126.448 73.533C127.209 75.2093 127.581 77.3176 127.572 79.858ZM122.502 79.5728C122.502 77.8879 122.303 76.4968 121.914 75.408C121.516 74.328 120.902 73.5244 120.08 73.0059C119.249 72.4789 118.194 72.2196 116.904 72.2283C115.944 72.2283 115.113 72.3665 114.395 72.643C113.686 72.9109 113.106 73.317 112.674 73.8527C112.198 74.4403 111.843 75.2007 111.601 76.1425C111.358 77.0843 111.237 78.2076 111.237 79.5037C111.237 81.1886 111.428 82.5798 111.843 83.6685C112.241 84.7572 112.864 85.5694 113.695 86.0965C114.534 86.6236 115.598 86.8915 116.904 86.8828C118.194 86.8915 119.249 86.6322 120.08 86.1052C120.902 85.5867 121.516 84.7831 121.914 83.7031C122.303 82.623 122.502 81.2405 122.502 79.5728Z" fill="white"/>
<path d="M102.905 90.3901H98.2849V72.5817H89.9184V90.3901H85.2982V68.7107H102.905V90.3901Z" fill="white"/>
<path d="M80.8777 90.3901H76.4824V74.1111L70.7894 90.3901H66.0307L60.6665 74.1111V90.3901H56.2712V68.7107H63.0371L68.4447 85.6464L74.1377 68.7107H80.8777V90.3901Z" fill="white"/>
<path d="M51.8789 90.3901H47.4837V74.4999L38.598 90.3901H32.9396V68.7107H37.3348V84.8687L45.9869 68.7107H51.8789V90.3901Z" fill="white"/>
<path fill-rule="evenodd" clip-rule="evenodd" d="M15.0978 66.8354C15.7121 62.9126 16.6898 59.1107 18.0049 55.4643C18.6452 55.5939 19.3114 55.6544 19.9862 55.6544C25.6274 55.6544 30.2043 51.0835 30.2043 45.4498C30.2043 42.7194 29.1314 40.2481 27.3924 38.4163C29.815 35.3057 32.523 32.4284 35.482 29.8275C37.273 31.3742 39.6091 32.316 42.1701 32.316C47.8112 32.316 52.3881 27.7451 52.3881 22.1114C52.3881 21.161 52.2584 20.245 52.0161 19.3723C55.6586 17.8084 59.4915 16.5814 63.4541 15.726C64.8557 19.7007 68.6453 22.5435 73.1011 22.5435C77.9463 22.5435 82.0041 19.1822 83.051 14.6632C108.021 17.2295 128.613 34.5367 135.958 57.7282H124.979C117.452 38.3904 98.6333 24.6777 76.6052 24.6777C47.9496 24.6777 24.7189 47.8778 24.7189 76.4957C24.7189 105.114 52.3103 128.314 76.6052 128.314C100.9 128.314 115.41 117.081 124.105 100.612H135.56C127.029 120.831 106.541 135.598 83.9075 138.233C82.8087 133.775 78.7855 130.465 73.9837 130.465C69.4759 130.465 65.6431 133.386 64.2847 137.438C60.2442 136.626 56.3421 135.425 52.6217 133.87C52.8294 133.057 52.9419 132.211 52.9419 131.329C52.9419 125.696 48.3649 121.125 42.7238 121.125C40.1628 121.125 37.8181 122.066 36.0271 123.622C33.0076 121.021 30.2389 118.144 27.7558 115.016C29.5208 113.184 30.6109 110.687 30.6109 107.939C30.6109 102.305 26.034 97.7344 20.3929 97.7344C19.6315 97.7344 18.8961 97.8208 18.1779 97.9763C16.7936 94.2349 15.7727 90.3294 15.1324 86.2855C19.2595 84.9722 22.2444 81.1184 22.2444 76.5648C22.2358 72.0112 19.2335 68.1488 15.0978 66.8354ZM0 76.4957C0 34.2515 34.2967 0 76.5966 0C112.416 0 142.491 24.5567 150.866 57.7282H140.726C133.19 32.005 110.564 12.7277 83.0596 10.0836C82.0301 5.53002 77.9549 2.13424 73.0925 2.13424C67.8407 2.13424 63.5233 6.08302 62.9436 11.1724C58.384 12.1228 53.9888 13.5313 49.8185 15.3544C47.9496 13.2375 45.2069 11.9068 42.1614 11.9068C36.5203 11.9068 31.9434 16.4777 31.9434 22.1114C31.9434 23.5371 32.2375 24.9024 32.7653 26.1293C29.3823 29.0671 26.3022 32.342 23.5682 35.8933C22.4521 35.4785 21.2408 35.2452 19.9776 35.2452C14.3364 35.2452 9.75951 39.8161 9.75951 45.4498C9.75951 48.7765 11.3515 51.7229 13.8173 53.5893C12.3119 57.7023 11.1957 62.0139 10.5295 66.4639C5.58922 67.1897 1.79097 71.4323 1.79097 76.5734C1.79097 81.7146 5.59787 85.9745 10.5555 86.6744C11.2563 91.2712 12.4416 95.7125 14.0336 99.955C11.6803 101.821 10.1662 104.707 10.1662 107.948C10.1662 113.581 14.7431 118.152 20.3842 118.152C21.6215 118.152 22.8154 117.928 23.9143 117.53C26.7089 121.107 29.8669 124.382 33.319 127.329C32.7913 128.564 32.4971 129.921 32.4971 131.347C32.4971 136.98 37.074 141.551 42.7152 141.551C45.8385 141.551 48.6332 140.151 50.5106 137.948C54.7501 139.745 59.206 141.11 63.8435 142.009C64.4924 147.021 68.7838 150.892 73.975 150.892C78.8807 150.892 82.9818 147.435 83.9681 142.821C109.128 140.065 131.65 123.363 140.475 100.62H150.874C140.76 131.053 114.683 153 76.6052 153C38.5276 153 0 118.748 0 76.4957Z" fill="url(#paint0_radial_303_16388)"/>
<mask id="mask0_303_16388" style="mask-type:alpha" maskUnits="userSpaceOnUse" x="64" y="4" width="18" height="17">
<path fill-rule="evenodd" clip-rule="evenodd" d="M77.5642 19.4309C73.892 21.7885 69.0521 20.8674 66.4968 17.4028C66.3953 17.2676 66.2938 17.124 66.2007 16.9719C65.4307 15.7804 65.0077 14.4622 64.9146 13.1355C64.7031 10.2371 66.0399 7.31339 68.6545 5.63182C68.756 5.57267 68.8491 5.51351 68.9506 5.45436C71.5228 3.94179 74.6112 3.98404 77.0734 5.33606C78.2326 5.96982 79.248 6.89089 80.018 8.08235C82.4802 11.8934 81.3802 16.9719 77.5642 19.4309Z" fill="#C4C4C4"/>
</mask>
<g mask="url(#mask0_303_16388)">
<path d="M82.1623 4.3208H64.8928V21.5675H82.1623V4.3208Z" fill="url(#paint1_radial_303_16388)"/>
</g>
<mask id="mask1_303_16388" style="mask-type:alpha" maskUnits="userSpaceOnUse" x="33" y="13" width="18" height="18">
<path fill-rule="evenodd" clip-rule="evenodd" d="M46.4146 28.9348C42.7424 31.2924 37.9025 30.3713 35.3472 26.9068C35.2457 26.7716 35.1441 26.6279 35.051 26.4758C34.2811 25.2844 33.858 23.9661 33.7649 22.6395C33.5534 19.7411 34.8903 16.8173 37.5048 15.1357C37.6064 15.0766 37.6994 15.0174 37.801 14.9583C40.3732 13.4457 43.4616 13.4879 45.9238 14.84C47.083 15.4737 48.0984 16.3948 48.8683 17.5863C51.3306 21.3973 50.2306 26.4758 46.4146 28.9348Z" fill="#C4C4C4"/>
</mask>
<g mask="url(#mask1_303_16388)">
<path d="M51.0127 13.8247H33.7432V31.0715H51.0127V13.8247Z" fill="url(#paint2_radial_303_16388)"/>
</g>
<mask id="mask2_303_16388" style="mask-type:alpha" maskUnits="userSpaceOnUse" x="11" y="37" width="18" height="18">
<path fill-rule="evenodd" clip-rule="evenodd" d="M24.5859 53.0607C20.7204 55.5423 15.6258 54.5728 12.936 50.9259C12.8291 50.7836 12.7222 50.6324 12.6243 50.4722C11.8138 49.2181 11.3684 47.8305 11.2705 46.434C11.0478 43.383 12.455 40.3054 15.2072 38.5353C15.3141 38.473 15.412 38.4108 15.5189 38.3485C18.2265 36.7563 21.4775 36.8008 24.0693 38.224C25.2895 38.8911 26.3583 39.8606 27.1688 41.1148C29.7606 45.1264 28.6028 50.4722 24.5859 53.0607Z" fill="#C4C4C4"/>
</mask>
<g mask="url(#mask2_303_16388)">
<path d="M29.426 37.1553H11.2476V55.3098H29.426V37.1553Z" fill="url(#paint3_radial_303_16388)"/>
</g>
<mask id="mask3_303_16388" style="mask-type:alpha" maskUnits="userSpaceOnUse" x="3" y="68" width="18" height="18">
<path fill-rule="evenodd" clip-rule="evenodd" d="M16.8006 84.1676C12.9353 86.6492 7.84094 85.6797 5.15126 82.0329C5.04438 81.8906 4.93751 81.7394 4.83954 81.5793C4.02907 80.3252 3.58376 78.9376 3.4858 77.5412C3.26314 74.4904 4.67032 71.4129 7.42234 69.6429C7.52922 69.5806 7.62719 69.5184 7.73406 69.4561C10.4416 67.864 13.6923 67.9085 16.284 69.3316C17.5042 69.9987 18.5729 70.9682 19.3834 72.2223C21.9751 76.2337 20.8173 81.5793 16.8006 84.1676Z" fill="#C4C4C4"/>
</mask>
<g mask="url(#mask3_303_16388)">
<path d="M21.6405 68.2629H3.46289V86.4166H21.6405V68.2629Z" fill="url(#paint4_radial_303_16388)"/>
</g>
<mask id="mask4_303_16388" style="mask-type:alpha" maskUnits="userSpaceOnUse" x="12" y="99" width="17" height="17">
<path fill-rule="evenodd" clip-rule="evenodd" d="M24.786 114.477C21.1138 116.835 16.274 115.914 13.7186 112.449C13.6171 112.314 13.5156 112.17 13.4225 112.018C12.6525 110.827 12.2295 109.509 12.1364 108.182C11.9249 105.284 13.2617 102.36 15.8763 100.678C15.9778 100.619 16.0709 100.56 16.1724 100.501C18.7447 98.9882 21.833 99.0304 24.2953 100.382C25.4545 101.016 26.4698 101.937 27.2398 103.129C29.702 106.94 28.6021 112.018 24.786 114.477Z" fill="#C4C4C4"/>
</mask>
<g mask="url(#mask4_303_16388)">
<path d="M29.3841 99.3672H12.1146V116.614H29.3841V99.3672Z" fill="url(#paint5_radial_303_16388)"/>
</g>
<mask id="mask5_303_16388" style="mask-type:alpha" maskUnits="userSpaceOnUse" x="65" y="132" width="18" height="17">
<path fill-rule="evenodd" clip-rule="evenodd" d="M78.426 147.313C74.7538 149.67 69.914 148.749 67.3587 145.285C67.2571 145.15 67.1556 145.006 67.0625 144.854C66.2925 143.662 65.8695 142.344 65.7764 141.017C65.5649 138.119 66.9018 135.195 69.5163 133.514C69.6178 133.455 69.7109 133.395 69.8124 133.336C72.3847 131.824 75.473 131.866 77.9353 133.218C79.0945 133.852 80.1098 134.773 80.8798 135.964C83.342 139.775 82.2421 144.854 78.426 147.313Z" fill="#C4C4C4"/>
</mask>
<g mask="url(#mask5_303_16388)">
<path d="M83.0241 132.203H65.7546V149.449H83.0241V132.203Z" fill="url(#paint6_radial_303_16388)"/>
</g>
<mask id="mask6_303_16388" style="mask-type:alpha" maskUnits="userSpaceOnUse" x="34" y="123" width="18" height="17">
<path fill-rule="evenodd" clip-rule="evenodd" d="M47.2815 138.671C43.6093 141.029 38.7694 140.108 36.2141 136.643C36.1126 136.508 36.0111 136.364 35.918 136.212C35.148 135.021 34.7249 133.702 34.6319 132.376C34.4203 129.477 35.7572 126.554 38.3718 124.872C38.4733 124.813 38.5664 124.754 38.6679 124.695C41.2401 123.182 44.3285 123.224 46.7907 124.576C47.9499 125.21 48.9653 126.131 49.7353 127.323C52.1975 131.134 51.0975 136.212 47.2815 138.671Z" fill="#C4C4C4"/>
</mask>
<g mask="url(#mask6_303_16388)">
<path d="M51.8796 123.561H34.6101V140.808H51.8796V123.561Z" fill="url(#paint7_radial_303_16388)"/>
</g>
<defs>
<radialGradient id="paint0_radial_303_16388" cx="0" cy="0" r="1" gradientUnits="userSpaceOnUse" gradientTransform="translate(115.744 4.4158) scale(156.918 156.712)">
<stop offset="0.09" stop-color="#F9F9F9"/>
<stop offset="1" stop-color="#F9F9F9"/>
</radialGradient>
<radialGradient id="paint1_radial_303_16388" cx="0" cy="0" r="1" gradientUnits="userSpaceOnUse" gradientTransform="translate(70.7536 10.4764) scale(12.7911 12.7742)">
<stop stop-color="white"/>
<stop offset="0.2081" stop-color="white"/>
<stop offset="0.243" stop-color="white"/>
<stop offset="0.3519" stop-color="#C3C1C2"/>
<stop offset="0.5116" stop-color="#717172"/>
<stop offset="0.5687" stop-color="#737374"/>
<stop offset="0.6204" stop-color="#7B7B7C"/>
<stop offset="0.67" stop-color="#888888"/>
<stop offset="0.7181" stop-color="#9A9A99"/>
<stop offset="0.7406" stop-color="#A5A5A4"/>
<stop offset="0.7655" stop-color="#929292"/>
<stop offset="0.8178" stop-color="#717272"/>
<stop offset="0.8687" stop-color="#5A5A5C"/>
<stop offset="0.9171" stop-color="#4A4B4D"/>
<stop offset="0.962" stop-color="#414244"/>
<stop offset="1" stop-color="#3E3F41"/>
</radialGradient>
<radialGradient id="paint2_radial_303_16388" cx="0" cy="0" r="1" gradientUnits="userSpaceOnUse" gradientTransform="translate(39.604 19.9803) scale(12.7911 12.7743)">
<stop stop-color="white"/>
<stop offset="0.2081" stop-color="white"/>
<stop offset="0.243" stop-color="white"/>
<stop offset="0.3519" stop-color="#C3C1C2"/>
<stop offset="0.5116" stop-color="#717172"/>
<stop offset="0.5687" stop-color="#737374"/>
<stop offset="0.6204" stop-color="#7B7B7C"/>
<stop offset="0.67" stop-color="#888888"/>
<stop offset="0.7181" stop-color="#9A9A99"/>
<stop offset="0.7406" stop-color="#A5A5A4"/>
<stop offset="0.7655" stop-color="#929292"/>
<stop offset="0.8178" stop-color="#717272"/>
<stop offset="0.8687" stop-color="#5A5A5C"/>
<stop offset="0.9171" stop-color="#4A4B4D"/>
<stop offset="0.962" stop-color="#414244"/>
<stop offset="1" stop-color="#3E3F41"/>
</radialGradient>
<radialGradient id="paint3_radial_303_16388" cx="0" cy="0" r="1" gradientUnits="userSpaceOnUse" gradientTransform="translate(17.4168 43.6348) scale(13.4643 13.4466)">
<stop stop-color="white"/>
<stop offset="0.2081" stop-color="white"/>
<stop offset="0.243" stop-color="white"/>
<stop offset="0.3519" stop-color="#C3C1C2"/>
<stop offset="0.5116" stop-color="#717172"/>
<stop offset="0.5687" stop-color="#737374"/>
<stop offset="0.6204" stop-color="#7B7B7C"/>
<stop offset="0.67" stop-color="#888888"/>
<stop offset="0.7181" stop-color="#9A9A99"/>
<stop offset="0.7406" stop-color="#A5A5A4"/>
<stop offset="0.7655" stop-color="#929292"/>
<stop offset="0.8178" stop-color="#717272"/>
<stop offset="0.8687" stop-color="#5A5A5C"/>
<stop offset="0.9171" stop-color="#4A4B4D"/>
<stop offset="0.962" stop-color="#414244"/>
<stop offset="1" stop-color="#3E3F41"/>
</radialGradient>
<radialGradient id="paint4_radial_303_16388" cx="0" cy="0" r="1" gradientUnits="userSpaceOnUse" gradientTransform="translate(9.63187 74.7422) scale(13.4637 13.446)">
<stop stop-color="white"/>
<stop offset="0.2081" stop-color="white"/>
<stop offset="0.243" stop-color="white"/>
<stop offset="0.3519" stop-color="#C3C1C2"/>
<stop offset="0.5116" stop-color="#717172"/>
<stop offset="0.5687" stop-color="#737374"/>
<stop offset="0.6204" stop-color="#7B7B7C"/>
<stop offset="0.67" stop-color="#888888"/>
<stop offset="0.7181" stop-color="#9A9A99"/>
<stop offset="0.7406" stop-color="#A5A5A4"/>
<stop offset="0.7655" stop-color="#929292"/>
<stop offset="0.8178" stop-color="#717272"/>
<stop offset="0.8687" stop-color="#5A5A5C"/>
<stop offset="0.9171" stop-color="#4A4B4D"/>
<stop offset="0.962" stop-color="#414244"/>
<stop offset="1" stop-color="#3E3F41"/>
</radialGradient>
<radialGradient id="paint5_radial_303_16388" cx="0" cy="0" r="1" gradientUnits="userSpaceOnUse" gradientTransform="translate(17.9754 105.523) scale(12.7911 12.7743)">
<stop stop-color="white"/>
<stop offset="0.2081" stop-color="white"/>
<stop offset="0.243" stop-color="white"/>
<stop offset="0.3519" stop-color="#C3C1C2"/>
<stop offset="0.5116" stop-color="#717172"/>
<stop offset="0.5687" stop-color="#737374"/>
<stop offset="0.6204" stop-color="#7B7B7C"/>
<stop offset="0.67" stop-color="#888888"/>
<stop offset="0.7181" stop-color="#9A9A99"/>
<stop offset="0.7406" stop-color="#A5A5A4"/>
<stop offset="0.7655" stop-color="#929292"/>
<stop offset="0.8178" stop-color="#717272"/>
<stop offset="0.8687" stop-color="#5A5A5C"/>
<stop offset="0.9171" stop-color="#4A4B4D"/>
<stop offset="0.962" stop-color="#414244"/>
<stop offset="1" stop-color="#3E3F41"/>
</radialGradient>
<radialGradient id="paint6_radial_303_16388" cx="0" cy="0" r="1" gradientUnits="userSpaceOnUse" gradientTransform="translate(71.6154 138.358) scale(12.7911 12.7743)">
<stop stop-color="white"/>
<stop offset="0.2081" stop-color="white"/>
<stop offset="0.243" stop-color="white"/>
<stop offset="0.3519" stop-color="#C3C1C2"/>
<stop offset="0.5116" stop-color="#717172"/>
<stop offset="0.5687" stop-color="#737374"/>
<stop offset="0.6204" stop-color="#7B7B7C"/>
<stop offset="0.67" stop-color="#888888"/>
<stop offset="0.7181" stop-color="#9A9A99"/>
<stop offset="0.7406" stop-color="#A5A5A4"/>
<stop offset="0.7655" stop-color="#929292"/>
<stop offset="0.8178" stop-color="#717272"/>
<stop offset="0.8687" stop-color="#5A5A5C"/>
<stop offset="0.9171" stop-color="#4A4B4D"/>
<stop offset="0.962" stop-color="#414244"/>
<stop offset="1" stop-color="#3E3F41"/>
</radialGradient>
<radialGradient id="paint7_radial_303_16388" cx="0" cy="0" r="1" gradientUnits="userSpaceOnUse" gradientTransform="translate(40.4709 129.717) scale(12.7911 12.7743)">
<stop stop-color="white"/>
<stop offset="0.2081" stop-color="white"/>
<stop offset="0.243" stop-color="white"/>
<stop offset="0.3519" stop-color="#C3C1C2"/>
<stop offset="0.5116" stop-color="#717172"/>
<stop offset="0.5687" stop-color="#737374"/>
<stop offset="0.6204" stop-color="#7B7B7C"/>
<stop offset="0.67" stop-color="#888888"/>
<stop offset="0.7181" stop-color="#9A9A99"/>
<stop offset="0.7406" stop-color="#A5A5A4"/>
<stop offset="0.7655" stop-color="#929292"/>
<stop offset="0.8178" stop-color="#717272"/>
<stop offset="0.8687" stop-color="#5A5A5C"/>
<stop offset="0.9171" stop-color="#4A4B4D"/>
<stop offset="0.962" stop-color="#414244"/>
<stop offset="1" stop-color="#3E3F41"/>
</radialGradient>
</defs>
</svg>
