<svg width="43" height="43" viewBox="0 0 43 43" fill="none" xmlns="http://www.w3.org/2000/svg">
<path d="M14.9049 0C26.9452 0 16.0463 0 28.0866 0C40.1269 0 42.9915 2.86461 42.9915 14.9049C42.9915 26.9452 42.9915 16.0463 42.9915 28.0866C42.9915 40.1269 40.1269 42.9915 28.0866 42.9915C16.0463 42.9915 26.9452 42.9915 14.9049 42.9915C2.86461 42.9915 0 40.1045 0 28.0642C0 16.0239 0 21.5964 0 14.8825C0 2.86461 2.86461 0 14.9049 0Z" fill="black"/>
<path fill-rule="evenodd" clip-rule="evenodd" d="M35.1807 14.7937C35.3821 14.1223 35.1807 13.6523 34.2408 13.6523H31.1076C30.3019 13.6523 29.9439 14.0776 29.7424 14.5475C29.7424 14.5475 28.1535 18.4416 25.8931 20.9481C25.1546 21.6867 24.8413 21.9105 24.4384 21.9105C24.237 21.9105 23.9461 21.6867 23.9461 21.0153V14.7937C23.9461 13.988 23.7223 13.6523 23.0509 13.6523H18.1274C17.635 13.6523 17.3217 14.0328 17.3217 14.3685C17.3217 15.1294 18.4407 15.3084 18.575 17.4121V22.0447C18.575 23.0518 18.3959 23.2309 17.9931 23.2309C16.9412 23.2309 14.3452 19.3368 12.8234 14.8608C12.5324 13.988 12.2191 13.6523 11.4134 13.6523H8.28028C7.38509 13.6523 7.20605 14.0776 7.20605 14.5475C7.20605 15.3756 8.2579 19.4935 12.152 24.9317C14.748 28.6468 18.3959 30.6609 21.7081 30.6609C23.6999 30.6609 23.9461 30.2133 23.9461 29.4524V26.6326C23.9461 25.7374 24.1251 25.5584 24.7741 25.5584C25.2441 25.5584 26.0274 25.7822 27.8849 27.5725C30.011 29.6986 30.3691 30.6609 31.5552 30.6609H34.6884C35.5836 30.6609 36.0312 30.2133 35.7626 29.3405C35.4717 28.4677 34.4646 27.1921 33.1218 25.6703C32.3833 24.7975 31.2866 23.8799 30.9733 23.4099C30.5034 22.8057 30.6376 22.5371 30.9733 22.0224C30.9733 22 34.8003 16.6288 35.1807 14.7937Z" fill="white"/>
</svg>
